<?xml version="1.0" encoding="UTF-8"?>
<svg xmlns="http://www.w3.org/2000/svg" version="1.1" width="1040" height="1024" style="background: transparent;">

<path d="M0 0 C292.05 0 584.1 0 885 0 C885 0.99 885 1.98 885 3 C884.34 3 883.68 3 883 3 C882.7525 3.66 882.505 4.32 882.25 5 C881.24387057 7.41471064 880.19677187 9.76953887 879.0625 12.125 C878.74410156 12.78757812 878.42570313 13.45015625 878.09765625 14.1328125 C876.93880843 16.104091 875.61275676 17.39136794 874 19 C871.42541556 23.05026089 869.2246289 27.29682634 867.4375 31.75 C865.98013799 35.04490541 864.24639899 37.20901944 862 40 C861.39517921 41.23974578 860.81368621 42.49101802 860.25 43.75 C858.22024538 47.97536467 855.4630943 51.08440382 852.27348328 54.48886108 C850.11409774 56.8739752 848.13589159 59.33049235 846.15161133 61.86181641 C840.03067436 69.37493797 833.14202473 76.08751766 826.26171875 82.8984375 C824.84875371 84.30511655 823.43631297 85.71232241 822.02436829 87.12002563 C818.3362543 90.79494559 814.64258538 94.46422489 810.94720459 98.13183594 C805.01535007 104.02027062 799.09045445 109.91568838 793.16871071 115.81428909 C791.10825214 117.86457218 789.04439377 119.91138579 786.98014832 121.95785522 C785.71540966 123.21576508 784.45078074 124.47378528 783.1862793 125.73193359 C782.33138916 126.57671768 782.33138916 126.57671768 781.45922852 127.43856812 C779.04406431 129.84683859 776.84560062 132.19741628 774.73835754 134.89175415 C774.16469955 135.58747528 773.59104156 136.28319641 773 137 C772.34 137 771.68 137 771 137 C771 137.66 771 138.32 771 139 C769.59181213 140.38694763 769.59181213 140.38694763 767.60766602 142.02124023 C762.56445161 146.31299764 757.93502093 150.95729697 753.27734375 155.66015625 C751.89536766 157.04791907 750.51338865 158.435679 749.1312418 159.82327175 C746.73115978 162.23419429 744.33442622 164.64844064 741.9375 167.0625 C739.06916374 169.95131147 736.20020846 172.8394884 733.32728577 175.72373962 C731.54629312 177.51219771 729.76755407 179.30290377 727.99143982 181.09620667 C721.95778271 187.15433277 715.71421961 192.71000879 709 198 C708.34 197.67 707.68 197.34 707 197 C707.66 196.01 708.32 195.02 709 194 C708.16984375 194.6496875 707.3396875 195.299375 706.484375 195.96875 C701.78290448 199.10674678 696.74797803 198.48825115 691.265625 198.53125 C689.64914062 198.76328125 689.64914062 198.76328125 688 199 C686.6396838 200.80392692 686.6396838 200.80392692 686 203 C685.47792969 203.495 684.95585938 203.99 684.41796875 204.5 C682.64942513 206.37085606 682.59607965 207.47102735 682.3125 210 C681.2590654 215.31856007 678.61616162 218.7469665 675.3359375 222.98046875 C673.69147086 225.10617562 672.12689681 227.21916383 670.6015625 229.42578125 C665.88440139 236.24903534 660.97999839 242.50646843 655.2890625 248.55859375 C653.34272738 250.63446312 651.50857547 252.75310651 649.6875 254.9375 C646.43503487 258.68134475 642.87402999 262.05948771 639.25 265.4375 C638.3986145 266.23692017 638.3986145 266.23692017 637.5300293 267.05249023 C635.04049726 269.33959718 633.24385545 270.91871485 630 272 C629.731875 272.57234375 629.46375 273.1446875 629.1875 273.734375 C627.4811271 276.98995487 624.80192865 278.96613211 622 281.25 C621.41766602 281.73380127 620.83533203 282.21760254 620.23535156 282.71606445 C615.9824 286.23669271 611.66204353 289.67147843 607.3359375 293.1015625 C603.43916706 296.26850303 599.72845327 299.63827984 596 303 C591.7585892 306.79143794 587.45624499 310.46221771 583 314 C578.18791047 317.83716233 578.18791047 317.83716233 573.4375 321.75 C572.79683594 322.28109375 572.15617188 322.8121875 571.49609375 323.359375 C569.77574041 325.24592436 569.57232147 326.55776612 569 329 C567.56387882 330.16893584 566.12441393 331.33413582 564.6640625 332.47265625 C562.13493456 334.79399199 560.52842584 337.58579887 558.703125 340.47265625 C556.77818659 343.32915889 554.64916365 345.92241805 552.4375 348.5625 C549.26324391 352.36093754 546.49263223 356.12608851 544.0703125 360.44140625 C543 362 543 362 540 364 C537.87109375 364.25537109 537.87109375 364.25537109 535.4375 364.2734375 C534.11878906 364.304375 534.11878906 364.304375 532.7734375 364.3359375 C530.92457268 364.36197785 529.07558135 364.38020799 527.2265625 364.390625 C526.34742188 364.41382813 525.46828125 364.43703125 524.5625 364.4609375 C523.75941406 364.46915527 522.95632813 364.47737305 522.12890625 364.48583984 C519.84435267 364.83628691 519.84435267 364.83628691 518.24511719 366.81689453 C516.47650807 369.91785585 516.47140275 373.0164047 516.25 376.5 C515.5220955 384.34429434 513.22912043 390.8993595 508 397 C505.87109375 397.73828125 505.87109375 397.73828125 504 398 C502.05276675 399.5577866 500.98968663 401.0180484 499.75 403.1875 C497.28799479 407.14429408 494.43564839 410.83772578 491 414 C490.37681885 414.1343042 489.7536377 414.2686084 489.11157227 414.40698242 C486.49590726 415.14157027 485.33355534 416.2688158 483.3984375 418.16015625 C482.74359375 418.78857422 482.08875 419.41699219 481.4140625 420.06445312 C480.74117187 420.72380859 480.06828125 421.38316406 479.375 422.0625 C478.0329097 423.37027549 476.68675439 424.67389653 475.3359375 425.97265625 C474.74345215 426.55281494 474.1509668 427.13297363 473.54052734 427.73071289 C472 429 472 429 470 429 C469.67 429.99 469.34 430.98 469 432 C467.36328125 433.46484375 467.36328125 433.46484375 465.3125 434.9375 C464.58546875 435.46601563 463.8584375 435.99453125 463.109375 436.5390625 C461.46096016 437.68074241 459.7689714 438.75957084 458.0625 439.8125 C453.54326394 443.04052575 449.84931304 447.01372639 446 451 C442.93894541 454.13954317 439.7802369 457.09359427 436.5 460 C432.31970255 463.74289712 428.28584755 467.6029488 424.3125 471.5625 C423.52939453 472.33883789 423.52939453 472.33883789 422.73046875 473.13085938 C419.95384956 475.91794321 417.30650557 478.77372336 414.7434082 481.75878906 C411.28765591 485.72254912 407.66286339 489.46667244 403.9296875 493.16796875 C403.28556915 493.81067215 402.64145081 494.45337555 401.97781372 495.11555481 C399.94590995 497.14192915 397.91054143 499.16478049 395.875 501.1875 C394.50367223 502.55380162 393.13257663 503.9203363 391.76171875 505.28710938 C388.6852707 508.35363641 385.60762569 511.41894038 382.52435303 514.47860718 C381.23863059 515.76183281 379.967457 517.05961137 378.69970703 518.3605957 C376.32104408 520.686127 373.88719363 522.89448799 371.40087891 525.10302734 C366.1229841 529.82821453 361.09905575 534.78397424 356.11262131 539.8122139 C354.54108382 541.39678827 352.96620432 542.97797746 351.39053345 544.55844116 C348.04915384 547.91111202 344.71177139 551.26774357 341.375 554.625 C337.49474509 558.52902156 333.61277888 562.431311 329.72655106 566.32938766 C328.18916318 567.8731675 326.6548621 569.41996792 325.12069702 570.96694946 C320.47194532 575.63974641 315.76774875 580.1741983 310.76010132 584.46252441 C308.05485905 586.82559516 305.54750498 589.36506613 303.0390625 591.93359375 C301.98059298 593.00468007 300.9219958 594.07564025 299.86328125 595.14648438 C298.22875315 596.80603329 296.59590581 598.46718052 294.96533203 600.13061523 C293.36921101 601.75674919 291.76707677 603.37675895 290.1640625 604.99609375 C289.6745108 605.49910507 289.18495911 606.00211639 288.68057251 606.52037048 C287.49116463 607.71861993 286.24975604 608.86483363 285 610 C284.34 610 283.68 610 283 610 C282.73574219 610.59039063 282.47148437 611.18078125 282.19921875 611.7890625 C280.95623135 614.080694 279.67309857 615.56123572 277.8125 617.375 C276.87857422 618.28572266 276.87857422 618.28572266 275.92578125 619.21484375 C274.16002365 620.85166165 272.35363702 622.40186843 270.5 623.9375 C267.32497705 626.60676708 264.71257344 629.55170719 262.03515625 632.7109375 C258.65483646 636.51298625 254.99156675 640.02617817 251.35546875 643.58203125 C248.89275734 645.9623308 248.89275734 645.9623308 247 649 C246.34 649 245.68 649 245 649 C245 649.66 245 650.32 245 651 C243.35648543 652.36176922 241.68477344 653.68962066 240 655 C236.93926906 657.96906179 234.01985552 661.04054805 231.15625 664.19946289 C222.36283591 673.89511791 213.03530168 683.06107231 203.71875 692.25 C199.86406702 696.17476812 196.28573465 700.37392382 192.875 704.6875 C190.00057401 708.23262539 186.70063673 711.31645197 183.4375 714.5 C179.0116664 718.90204876 179.0116664 718.90204876 176.25 724.375 C174.57744945 727.88735617 172.09750729 729.657386 169.140625 732.125 C166.43203168 734.4974905 164.16073511 737.1089323 161.83203125 739.84765625 C158.31428007 743.98045135 154.64347405 747.97820996 151 752 C150.13117188 752.96292969 149.26234375 753.92585937 148.3671875 754.91796875 C142.97484113 760.86734373 137.45126789 766.62729083 131.703125 772.234375 C129.71840783 774.26498158 127.88753648 776.28411599 126.0546875 778.44140625 C120.35124742 785.02361006 114.05058802 791.05377769 107.875 797.1875 C106.60002588 798.45744687 105.32528454 799.72762749 104.05078125 800.99804688 C101.7109066 803.3298159 99.36970315 805.66023194 97.02685547 807.98901367 C92.48838423 812.50187272 87.96940744 817.03397924 83.45487976 821.57077026 C80.48373146 824.55537206 77.50987229 827.5372667 74.53588867 830.51904297 C72.97476323 832.08519959 71.41453616 833.65225224 69.85522461 835.22021484 C67.5868795 837.500785 65.31523547 839.77802544 63.04296875 842.0546875 C62.35623581 842.74658173 61.66950287 843.43847595 60.96195984 844.15133667 C57.00981587 848.10393023 52.95444372 851.87078551 48.71138 855.51004028 C46.71213844 857.25061771 44.83546458 859.08805773 43 861 C42.5875 860.21625 42.175 859.4325 41.75 858.625 C39.9607223 855.94108344 38.95011861 855.11901051 36 854 C35.34 856.31 34.68 858.62 34 861 C33.34 861 32.68 861 32 861 C32.25776829 855.07132938 34.31252039 851.37435439 37.52734375 846.4296875 C40.18174348 842.05028 41.19250993 838.2513681 41.75 833.1875 C42.74605597 826.96024929 44.79953466 823.58232582 49 819 C49.61617187 818.2678125 50.23234375 817.535625 50.8671875 816.78125 C56.05321213 810.75371949 61.78072054 805.40940837 67.62402344 800.03710938 C71.40698873 796.54249732 74.92609617 793.00129823 78.21484375 789.03125 C80.11043354 786.87434258 82.13535964 784.88345557 84.19506836 782.88427734 C89.84278032 777.40238767 94.82633506 771.69086514 99.52246094 765.36865234 C100.6402224 763.88040636 101.81515063 762.43540892 103 761 C103.66 761 104.32 761 105 761 C105.4021875 760.1028125 105.4021875 760.1028125 105.8125 759.1875 C106.99917406 757.00152146 108.09599113 755.58667406 110 754 C110.66 754 111.32 754 112 754 C112.33 753.01 112.66 752.02 113 751 C114.65626179 749.6537636 116.3243291 748.32199946 118 747 C119.35518309 745.41042143 120.66573393 743.78207342 121.9375 742.125 C125.70686941 737.40383329 129.74461191 733.15905274 134.0625 728.9375 C138.78504969 724.31007721 143.10882897 719.62230625 147.140625 714.3671875 C150.53334131 710.047889 154.30421773 706.05930184 158 702 C165.53250133 693.55344232 172.91696694 684.9405491 179.9375 676.0625 C187.67582865 666.31094764 195.97809904 657.00668666 204.14111328 647.61108398 C206.79709359 644.55206995 209.44350728 641.4858872 212.06640625 638.3984375 C219.32828705 629.85275991 226.84225433 621.58670321 234.5 613.39550781 C240.72223973 606.73171591 246.79667902 599.9775889 252.70214844 593.03076172 C257.76247342 587.08146073 262.9904759 581.2902051 268.26171875 575.52734375 C268.97972656 574.73457031 269.69773437 573.94179688 270.4375 573.125 C271.07558594 572.42632813 271.71367187 571.72765625 272.37109375 571.0078125 C274.06709335 569.07628194 274.06709335 569.07628194 275.04296875 566.82421875 C276 565 276 565 278.875 563.6875 C282.43824202 561.76334931 283.2440182 560.3827058 284.84765625 556.81640625 C286 555 286 555 288.28515625 553.203125 C291.56694738 550.53991609 293.85108094 547.55019584 296.375 544.1875 C299.78427802 539.74064037 303.20016465 535.61092213 307.2734375 531.75 C310.27835591 528.70429084 312.85745278 525.3010032 315.53515625 521.96875 C318.15433366 518.81411477 320.89140096 515.8091331 323.6875 512.8125 C327.21319901 509.02775287 330.46678276 505.17939932 333.48828125 500.98046875 C336.00571852 497.68243077 338.85645483 494.68694179 341.65234375 491.625 C344.76279015 488.14709653 347.68843574 484.53497776 350.625 480.91015625 C353.17488916 477.78570325 355.76619546 474.70023692 358.375 471.625 C358.83559814 471.08198242 359.29619629 470.53896484 359.77075195 469.97949219 C360.70969914 468.87331288 361.64890943 467.76735686 362.58837891 466.66162109 C364.91553563 463.92232177 367.23959245 461.18040303 369.5625 458.4375 C370.0157666 457.9024585 370.4690332 457.36741699 370.93603516 456.81616211 C374.06067768 453.12304705 377.16019352 449.40978167 380.25 445.6875 C383.03760624 442.33090451 385.85132204 439.0110127 388.75 435.75 C390.94481081 433.27445757 392.9439131 430.7480826 394.875 428.0625 C397.10842279 425.01370064 399.52613471 422.43123365 402.25 419.8125 C406.45084721 415.73187905 409.90511557 411.34021921 413.40258789 406.66845703 C416.16136938 403.01127962 419.04139766 399.7489896 422.359375 396.6015625 C424.16534575 394.83859106 425.79521869 392.97849487 427.4375 391.0625 C429.84719078 388.2592803 432.34827288 385.63758761 435 383.0625 C437.63905867 380.46859633 439.9334017 377.85403186 442.125 374.875 C446.00402205 369.7029706 450.58162456 365.28529195 455.20166016 360.78466797 C455.79124512 360.20861816 456.38083008 359.63256836 456.98828125 359.0390625 C457.51977783 358.52553223 458.05127441 358.01200195 458.59887695 357.48291016 C460.22409135 355.84612364 460.22409135 355.84612364 462 353 C462.66 353 463.32 353 464 353 C464.23589844 352.27039063 464.47179687 351.54078125 464.71484375 350.7890625 C466.21161576 347.54074878 467.95679541 345.81351541 470.5625 343.375 C475.00901187 339.0690388 478.91834079 334.55882371 482.77734375 329.7265625 C484.9796358 327.02498103 487.27260211 324.44631817 489.625 321.875 C492.33719728 318.90138611 494.89338766 315.90322076 497.3125 312.6875 C500.33493964 308.70465898 503.64619336 305.07923498 507.0625 301.4375 C510.80321794 297.44477219 514.32871232 293.45996129 517.52734375 289.01171875 C522.19759809 282.63192834 527.35471612 276.64690272 532.75 270.875 C536.95842643 266.3142402 540.71491444 261.52521835 544.4375 256.5625 C549.14377264 250.29206758 554.07448172 244.46725347 559.4453125 238.76171875 C563.52093965 234.35580377 567.24646338 229.6800853 571 225 C576.43565719 218.28244194 581.97693899 211.67242593 587.62158203 205.13061523 C590.55095425 201.72488044 593.40635099 198.27906756 596.1875 194.75 C599.57741819 190.45985458 603.17284288 186.39959827 606.85546875 182.359375 C608.72393113 180.30372604 610.55693736 178.22510099 612.375 176.125 C620.42122096 166.90575366 628.83111092 158.0130235 637.25366211 149.13891602 C640.39921014 145.81373494 643.49380344 142.46276551 646.4921875 139.00390625 C650.160557 134.77555145 654.00950503 130.73500467 657.875 126.6875 C663.2039848 121.07556566 668.25716139 115.39586172 673.06640625 109.33203125 C674.91386032 107.10388967 676.84740569 105.1240407 678.9375 103.125 C682.67654613 99.50325728 685.69359798 95.51446211 688.79443359 91.3425293 C692.41351761 86.56944573 696.41913406 82.25774828 700.5625 77.9375 C705.82269871 72.44182858 710.56790192 66.9087127 715.0234375 60.734375 C718.18594209 56.35936864 721.60738531 52.19718734 725 48 C727.01555421 45.47493766 729.02932846 42.94846365 731.04296875 40.421875 C733.33153865 37.58971264 735.66892906 34.79728513 738 32 C726.12 32.66 714.24 33.32 702 34 C702 34.66 702 35.32 702 36 C691.64557393 36.71228977 681.31614943 37.09237223 670.9375 37.2109375 C669.8040918 37.2252179 668.67068359 37.23949829 667.50292969 37.25421143 C662.79495632 37.31206785 658.08711748 37.3670841 653.37890625 37.40136719 C649.89814093 37.42876735 646.41802028 37.47452786 642.9375 37.5234375 C641.86685303 37.52669037 640.79620605 37.52994324 639.69311523 37.53329468 C638.21887085 37.55814438 638.21887085 37.55814438 636.71484375 37.58349609 C635.41728149 37.59562637 635.41728149 37.59562637 634.09350586 37.60800171 C633.40264893 37.73736115 632.71179199 37.86672058 632 38 C631.34 38.99 630.68 39.98 630 41 C629.34 41 628.68 41 628 41 C628.33 39.68 628.66 38.36 629 37 C628.34 37.33 627.68 37.66 627 38 C624.45384991 38.23172827 621.92603775 38.41894529 619.375 38.5625 C618.66859375 38.60568359 617.9621875 38.64886719 617.234375 38.69335938 C615.48981463 38.79944751 613.74493303 38.90022889 612 39 C612.66 39.66 613.32 40.32 614 41 C613 42 613 42 610.2980957 42.09765625 C609.10273193 42.08605469 607.90736816 42.07445312 606.67578125 42.0625 C605.33300858 42.05383467 603.9902351 42.04529496 602.64746094 42.03686523 C601.93940308 42.03065155 601.23134521 42.02443787 600.50183105 42.01803589 C589.74262036 41.92940063 579.00063721 41.94018909 568.25 42.4375 C567.35966064 42.47681641 566.46932129 42.51613281 565.55200195 42.55664062 C561.19317379 42.74158096 561.19317379 42.74158096 556.93261719 43.58227539 C555 44 555 44 552 43 C552 43.66 552 44.32 552 45 C551.34 45 550.68 45 550 45 C550 44.34 550 43.68 550 43 C547.03 43 544.06 43 541 43 C541.33 43.99 541.66 44.98 542 46 C536.76447914 47.05350196 531.67674998 47.19905587 526.359375 47.28125 C524.97603973 47.30886414 524.97603973 47.30886414 523.5647583 47.33703613 C520.62656742 47.39551068 517.68831913 47.44839978 514.75 47.5 C510.89051951 47.56826986 507.03119564 47.64202862 503.171875 47.71875 C502.30173767 47.73232544 501.43160034 47.74590088 500.53509521 47.7598877 C494.64867236 47.87693082 488.84916023 48.33238297 483 49 C484.98 49 486.96 49 489 49 C489 49.66 489 50.32 489 51 C482.0088759 51.80993395 475.09330223 52.18053589 468.05859375 52.28125 C467.05087418 52.29965942 466.0431546 52.31806885 465.00489807 52.33703613 C460.74009624 52.41484493 456.47515637 52.48320157 452.21020508 52.55224609 C449.07626543 52.60436287 445.94244216 52.6614452 442.80859375 52.71875 C441.38322548 52.73911316 441.38322548 52.73911316 439.92906189 52.7598877 C434.22345722 52.86493357 428.66257893 53.28571619 423 54 C424.98 54.33 426.96 54.66 429 55 C426.48042347 57.51957653 425.55635444 57.28242949 422.06298828 57.37890625 C420.52096237 57.42905884 420.52096237 57.42905884 418.94778442 57.48022461 C417.83321869 57.50737549 416.71865295 57.53452637 415.5703125 57.5625 C414.42843475 57.59931885 413.28655701 57.6361377 412.1100769 57.67407227 C408.44859876 57.79184669 404.78693108 57.89733352 401.125 58 C396.31470628 58.13525198 391.50501139 58.28267491 386.6953125 58.4375 C385.58479523 58.46465088 384.47427795 58.49180176 383.33010864 58.51977539 C382.29578705 58.55321045 381.26146545 58.58664551 380.19580078 58.62109375 C379.28694122 58.6461499 378.37808167 58.67120605 377.44168091 58.69702148 C374.49530578 59.06262551 372.1290338 59.8709662 370 62 C368.36019451 62.14708518 366.71436425 62.22766601 365.06884766 62.28125 C364.01750641 62.31798828 362.96616516 62.35472656 361.88296509 62.39257812 C360.73822723 62.42802734 359.59348938 62.46347656 358.4140625 62.5 C357.24620209 62.54060547 356.07834167 62.58121094 354.87509155 62.62304688 C351.12519987 62.75324819 347.37514405 62.8772959 343.625 63 C338.70033181 63.1615887 333.77591404 63.32906474 328.8515625 63.5 C327.71087311 63.53544922 326.57018372 63.57089844 325.39492798 63.60742188 C323.80845963 63.6625293 323.80845963 63.6625293 322.18994141 63.71875 C321.25808014 63.74904297 320.32621887 63.77933594 319.36611938 63.81054688 C316.84994876 63.91696096 316.84994876 63.91696096 314 65 C314 65.66 314 66.32 314 67 C276.875 68.485 276.875 68.485 239 70 C241.64 70.33 244.28 70.66 247 71 C247 71.33 247 71.66 247 72 C246.43845718 72.03314301 245.87691437 72.06628601 245.2983551 72.10043335 C239.47444457 72.44605094 233.65146755 72.80501308 227.82885742 73.171875 C225.65328835 73.30716713 223.47750198 73.43900977 221.30151367 73.56738281 C218.18084691 73.75207968 215.06116185 73.94901027 211.94140625 74.1484375 C210.96224747 74.20373627 209.98308868 74.25903503 208.97425842 74.31600952 C207.62297096 74.40587631 207.62297096 74.40587631 206.24438477 74.49755859 C205.44718521 74.54641205 204.64998566 74.5952655 203.82862854 74.64559937 C203.22518112 74.76255157 202.6217337 74.87950378 202 75 C201.67 75.66 201.34 76.32 201 77 C198.82397461 77.39477539 198.82397461 77.39477539 195.90234375 77.59765625 C194.805271 77.67636963 193.70819824 77.75508301 192.57788086 77.83618164 C191.37655518 77.9108667 190.17522949 77.98555176 188.9375 78.0625 C187.70717041 78.14556396 186.47684082 78.22862793 185.20922852 78.31420898 C173.89014221 79.0354364 162.56279102 79.40475441 151.22436523 79.65844727 C149.93216064 79.68994873 148.63995605 79.7214502 147.30859375 79.75390625 C146.16189209 79.77783447 145.01519043 79.8017627 143.83374023 79.82641602 C140.92283327 79.88259325 140.92283327 79.88259325 138 81 C138 81.66 138 82.32 138 83 C108.80584706 83.96193658 79.63763041 84.12806994 50.42944336 84.06866455 C43.70048363 84.05634447 36.97151399 84.05199497 30.24254608 84.04621124 C20.16167778 84.03670315 10.0808717 84.01747118 0 84 C0 56.28 0 28.56 0 0 Z " fill="#FCFCFB" transform="translate(73,66)"/>
<path d="M0 0 C4.08722038 2.59189585 7.7018989 5.38247178 11.2890625 8.6328125 C12.92823791 10.05309524 12.92823791 10.05309524 14.8046875 10.83984375 C18.07891452 12.57017369 20.72529305 15.01581986 23.5 17.4375 C24.41724854 18.23015259 24.41724854 18.23015259 25.35302734 19.03881836 C30.48840256 23.49925475 35.50307964 28.08300991 40.4765625 32.72265625 C42.88638127 34.99450118 42.88638127 34.99450118 45.3359375 36.62109375 C45.88507812 37.07613281 46.43421875 37.53117188 47 38 C47 38.99 47 39.98 47 41 C48.0725 41.04125 49.145 41.0825 50.25 41.125 C55.12364004 42.26218268 55.35654701 43.87932329 58 48 C60.16445608 49.51798337 62.37066174 50.83803553 64.68359375 52.1171875 C68.7456351 55.41888047 71.4825115 59.32747318 72.48852539 64.52294922 C72.70996677 67.19162706 72.79498704 69.82246313 72.8125 72.5 C72.83763672 73.4178125 72.86277344 74.335625 72.88867188 75.28125 C72.94698259 77.52038163 72.97649099 79.76023261 73 82 C75.97 82.33 78.94 82.66 82 83 C82 83.99 82 84.98 82 86 C82.59167969 86.09796875 83.18335938 86.1959375 83.79296875 86.296875 C88.99467627 87.28121117 92.00450606 88.39431035 96 92 C97.55476143 93.07379207 99.11832379 94.13488491 100.6875 95.1875 C105.35621899 98.4250343 109.52044652 102.02047553 113.6875 105.875 C115.64365405 107.67254696 117.6356886 109.37708349 119.6875 111.0625 C122.69327001 113.62502282 125.21028261 116.43247122 127.76171875 119.44140625 C131.48739109 123.70024635 135.39866659 127.78826817 139.28930664 131.89624023 C140.17863892 132.84092163 140.17863892 132.84092163 141.0859375 133.8046875 C141.6226709 134.37171387 142.1594043 134.93874023 142.71240234 135.52294922 C144 137 144 137 145 139 C145.99 139.33 146.98 139.66 148 140 C148.05671875 140.6909375 148.1134375 141.381875 148.171875 142.09375 C149.28554243 146.00209231 151.60606112 148.52470586 154.25 151.5 C154.72824219 152.05558594 155.20648437 152.61117187 155.69921875 153.18359375 C157.92639959 155.74877493 160.1983817 158.19719379 162.609375 160.59375 C165 163 165 163 166.97265625 165.58203125 C169.23004375 168.27436818 171.45443115 169.84635487 174.4375 171.6875 C175.36433594 172.26886719 176.29117188 172.85023438 177.24609375 173.44921875 C179.92890503 175.05303073 179.92890503 175.05303073 182.72265625 176.01953125 C185 177 185 177 187 180 C188.73226236 180.97636606 190.46678179 181.95210927 192.24609375 182.83984375 C194.45795619 184.30292425 195.57092375 185.76415551 197 188 C197.43237305 190.29003906 197.43237305 190.29003906 197.51171875 192.765625 C197.54716797 193.65507813 197.58261719 194.54453125 197.61914062 195.4609375 C197.65297852 196.84152344 197.65297852 196.84152344 197.6875 198.25 C197.72166016 199.18585938 197.75582031 200.12171875 197.79101562 201.0859375 C197.87332162 203.39050533 197.9425263 205.69470119 198 208 C199.98 208.33 201.96 208.66 204 209 C204 209.66 204 210.32 204 211 C205.01320313 211.14695312 205.01320313 211.14695312 206.046875 211.296875 C211.42913889 212.19910421 214.31260768 212.82095537 218 217 C219.86859265 217.9009286 221.73759781 218.80101895 223.609375 219.6953125 C238.00334403 227.55084462 251.14704506 240.90398465 261.59375 253.37890625 C262.86275291 254.84178461 264.23922603 256.20972065 265.625 257.5625 C269.06898046 261.09711153 271.48431383 265.07176489 273.875 269.375 C276.45032516 273.02204433 279.89451586 274.81380276 283.75 276.875 C292.56568486 281.59399776 298.82269365 287.85500194 304.515625 296.078125 C306.47063672 298.6093507 308.72411044 300.75450065 311 303 C317.66610184 310.1698105 324.33838013 317.39950324 330.4375 325.0625 C333.04099361 328.04699268 335.77595203 330.53675061 338.78515625 333.09765625 C341.11461043 335.09843964 343.36654577 337.16955201 345.625 339.25 C348.91597224 342.23541774 352.2859375 345.0128468 355.83203125 347.68994141 C366.22431533 355.55746347 376.15186017 364.68486916 384.3046875 374.8828125 C385.99947782 377.21832268 385.99947782 377.21832268 389 379 C389 379.66 389 380.32 389 381 C390.32 381.66 391.64 382.32 393 383 C393 389.93 393 396.86 393 404 C390.36 404.66 387.72 405.32 385 406 C385.66 406.66 386.32 407.32 387 408 C377.63804589 409.1253258 368.29149375 409.32946556 358.875 409.5625 C357.23436615 409.6057855 355.59374101 409.64940263 353.953125 409.69335938 C349.96884016 409.79939628 345.9844643 409.90094577 342 410 C342 410.99 342 411.98 342 413 C339.69 413 337.38 413 335 413 C335 412.34 335 411.68 335 411 C334.01 411 333.02 411 332 411 C332 411.66 332 412.32 332 413 C321.77 413 311.54 413 301 413 C301.99 412.34 302.98 411.68 304 411 C297.07 410.01 290.14 409.02 283 408 C283 407.01 283 406.02 283 405 C282.4225 404.855625 281.845 404.71125 281.25 404.5625 C279.16666667 404.04166667 277.08333333 403.52083333 275 403 C275 402.01 275 401.02 275 400 C273.948125 399.6596875 273.948125 399.6596875 272.875 399.3125 C268.90787162 397.50141965 265.0010918 395.0021836 263 391 C261.8553125 390.319375 261.8553125 390.319375 260.6875 389.625 C257.97778437 387.9865673 256.03895987 386.41654503 254 384 C254 383.01 254 382.02 254 381 C253.01 381 252.02 381 251 381 C249.09765625 378.76953125 249.09765625 378.76953125 247.0625 375.8125 C244.48317954 372.10006766 241.82872326 368.52539395 239 365 C238 363.33333333 237 361.66666667 236 360 C234.66772424 358.33248782 233.33420015 356.66597284 232 355 C230.42060594 352.86413549 228.85683866 350.72329429 227.3125 348.5625 C226.87969727 347.95704346 226.44689453 347.35158691 226.00097656 346.7277832 C222.16196849 341.31109101 218.5608251 335.75925732 215.0078125 330.15234375 C213.41705842 327.65479794 211.7934518 325.19547364 210.125 322.75 C208.10573683 319.76352673 206.21612955 316.71632769 204.36328125 313.625 C203.88294434 312.82610352 203.40260742 312.02720703 202.90771484 311.20410156 C201.94707034 309.60058137 200.99268093 307.99329272 200.04541016 306.38183594 C197.41871519 301.99867409 194.74504108 298.53305762 191 295 C190.02273256 293.37122094 189.05091104 291.73778724 188.1484375 290.06640625 C183.78874292 282.22192178 178.57208274 274.82909227 173.50390625 267.43359375 C172 265 172 265 172 263 C171.34 263 170.68 263 170 263 C168.73828125 261.1640625 168.73828125 261.1640625 167.3125 258.625 C165.25236829 255.07561646 163.12795408 251.65737631 160.75 248.3125 C153.8863443 238.6519802 147.43027735 228.71617461 141.05664062 218.7277832 C139.14664206 215.74534625 137.20111692 212.80687951 135.125 209.9375 C133 207 133 207 131.5 204.375 C129.67955994 201.49263657 127.46803805 199.33814131 125 197 C124 196 124 196 123.9375 193.4375 C123.958125 192.633125 123.97875 191.82875 124 191 C123.34 191 122.68 191 122 191 C120.6328125 189.20703125 120.6328125 189.20703125 119.125 186.8125 C117.47669613 184.24625451 115.88079708 181.85551161 113.9375 179.5 C111.64081584 176.53653657 109.9740063 173.40579571 108.24609375 170.0859375 C106.55214652 167.25030171 105.03812611 165.46634571 102 164.1015625 C99.34056167 162.63679373 98.51904559 160.99377131 97 158.375 C93.93776931 153.34607805 90.57564221 148.67613744 87 144 C83.55119918 139.48354921 80.26742284 134.98788001 77.3125 130.125 C74.95272166 126.26354453 72.34191241 123.05531888 69.25 119.75 C65.66731968 115.91835376 63.73390805 112.91273946 62 108 C60.56543403 105.31798535 59.28633936 103.28041101 57.11328125 101.15234375 C54.97659762 98.97616505 53.33511593 96.77101598 51.625 94.25 C49.41462273 91.0314635 47.17429713 87.85920129 44.8125 84.75 C43.05121863 82.43129182 41.42083323 80.12297603 39.8125 77.6875 C38.2113005 75.09703445 38.2113005 75.09703445 36.5625 73.65625 C34.59263531 71.56819343 33.49479656 69.36586986 32.1875 66.8125 C29.13778772 61.07722019 25.53086007 56.11735661 21.44921875 51.08984375 C19.86620979 48.80706802 19.00421209 46.58396076 18 44 C17.09394701 42.41905709 16.15485495 40.85669458 15.1875 39.3125 C8.46616375 28.29606595 -0.70396419 13.25394642 0 0 Z " fill="#17D173" transform="translate(563,554)"/>
<path d="M0 0 C0.99 0 1.98 0 3 0 C3.37511719 0.80824219 3.75023437 1.61648438 4.13671875 2.44921875 C8.92874549 12.4557431 14.19975743 19.18814968 25 23 C25 23.66 25 24.32 25 25 C24.03900391 25.43699219 24.03900391 25.43699219 23.05859375 25.8828125 C14.27317706 30.04639299 8.39810525 33.70650895 4.7265625 42.94921875 C4.1323893 44.62632052 3.56264662 46.31206015 3 48 C2.01 48 1.02 48 0 48 C-0.1959375 47.3709375 -0.391875 46.741875 -0.59375 46.09375 C-3.40733373 38.04107932 -7.36592628 32.50936008 -14.96484375 28.39453125 C-17.61778465 27.17561246 -20.27350147 26.04248473 -23 25 C-23 24.34 -23 23.68 -23 23 C-21.06374902 22.01836578 -19.12595461 21.03977546 -17.1875 20.0625 C-16.10855469 19.51722656 -15.02960937 18.97195313 -13.91796875 18.41015625 C-11 17 -11 17 -8 16 C-6.92074762 14.26187261 -6.92074762 14.26187261 -6 12 C-4 8 -2 4 0 0 Z " fill="#B9B9B9" transform="translate(983,944)"/>
<path d="M0 0 C0.66 0 1.32 0 2 0 C2 0.66 2 1.32 2 2 C2.78375 2.144375 3.5675 2.28875 4.375 2.4375 C7 3 7 3 9 4 C11.12358318 8.1692367 12.44158425 12.28976797 12 17 C12.66 17 13.32 17 14 17 C19.14285471 21.62591828 22.50320754 27.29695621 25.640625 33.38671875 C28.00444381 37.93095663 30.33007578 41.43493076 34 45 C35.0546398 46.15495258 36.09543573 47.3226394 37.125 48.5 C37.62257813 49.0671875 38.12015625 49.634375 38.6328125 50.21875 C40 52 40 52 40.96875 54.10546875 C42.4181306 56.76815659 44.64531048 57.42861324 47.24609375 58.796875 C50.35573941 60.92999496 51.45589262 63.60296377 53 67 C53 67.99 53 68.98 53 70 C53.99 70.33 54.98 70.66 56 71 C56.99 71.99 56.99 71.99 58 73 C58.33 73 58.66 73 59 73 C59 74.98 59 76.96 59 79 C59.639375 79.226875 60.27875 79.45375 60.9375 79.6875 C63 81 63 81 63.75 83.625 C63.8325 84.40875 63.915 85.1925 64 86 C64.66 86 65.32 86 66 86 C66 86.99 66 87.98 66 89 C66.66 89 67.32 89 68 89 C68 90.32 68 91.64 68 93 C68.66 93 69.32 93 70 93 C69.505 94.98 69.505 94.98 69 97 C63 91 63 91 62.9375 88.4375 C62.958125 87.633125 62.97875 86.82875 63 86 C62.34 86 61.68 86 61 86 C59.6328125 84.20703125 59.6328125 84.20703125 58.125 81.8125 C56.47669613 79.24625451 54.88079708 76.85551161 52.9375 74.5 C50.64081584 71.53653657 48.9740063 68.40579571 47.24609375 65.0859375 C45.55214652 62.25030171 44.03812611 60.46634571 41 59.1015625 C38.34056167 57.63679373 37.51904559 55.99377131 36 53.375 C32.93776931 48.34607805 29.57564221 43.67613744 26 39 C22.55119918 34.48354921 19.26742284 29.98788001 16.3125 25.125 C13.95272166 21.26354453 11.34191241 18.05531888 8.25 14.75 C4.69653665 10.94876114 2.61035768 7.93172039 1 3 C0.67 2.01 0.34 1.02 0 0 Z " fill="#33B46F" transform="translate(624,659)"/>
<path d="M0 0 C0.33 0.99 0.66 1.98 1 3 C22.8076159 5.77276572 22.8076159 5.77276572 44.46875 3.98193359 C50.33641437 2.78935518 55.95055876 2.83918699 61.9140625 3.0234375 C63.00971527 3.04846344 64.10536804 3.07348938 65.23422241 3.09927368 C68.69816357 3.18076544 72.16147265 3.27762595 75.625 3.375 C77.98825629 3.43331201 80.35153775 3.4906136 82.71484375 3.546875 C88.47690493 3.68623768 94.23852793 3.83818517 100 4 C100 4.33 100 4.66 100 5 C90.63804589 6.1253258 81.29149375 6.32946556 71.875 6.5625 C70.23436615 6.6057855 68.59374101 6.64940263 66.953125 6.69335938 C62.96884016 6.79939628 58.9844643 6.90094577 55 7 C55 7.99 55 8.98 55 10 C52.69 10 50.38 10 48 10 C48 9.34 48 8.68 48 8 C47.01 8 46.02 8 45 8 C45 8.66 45 9.32 45 10 C34.77 10 24.54 10 14 10 C14.99 9.34 15.98 8.68 17 8 C10.07 7.01 3.14 6.02 -4 5 C-4 4.01 -4 3.02 -4 2 C-5.32 1.67 -6.64 1.34 -8 1 C-8 0.67 -8 0.34 -8 0 C-4.71303767 -0.79953138 -3.28976808 -1.09658936 0 0 Z " fill="#38C079" transform="translate(850,957)"/>
<path d="M0 0 C4.08722038 2.59189585 7.7018989 5.38247178 11.2890625 8.6328125 C12.96125062 10.06668168 12.96125062 10.06668168 14.9765625 10.98828125 C17.20667255 12.10333627 18.87142781 13.42878444 20.75 15.0625 C21.36359375 15.58972656 21.9771875 16.11695313 22.609375 16.66015625 C23.06828125 17.10230469 23.5271875 17.54445313 24 18 C24 18.33 24 18.66 24 19 C22.35 19 20.7 19 19 19 C19 18.01 19 17.02 19 16 C13.42073742 14.15222006 13.42073742 14.15222006 8 15 C8 16.65 8 18.3 8 20 C8.99 20 9.98 20 11 20 C12.25664978 22.90600261 13 24.79604584 13 28 C13.66 28 14.32 28 15 28 C15.09796875 28.60328125 15.1959375 29.2065625 15.296875 29.828125 C16.13499225 34.97549236 16.13499225 34.97549236 19.125 39.0625 C21.38058085 41.39326688 21.26096356 42.10893919 21.25 45.25 C21.1675 46.4875 21.085 47.725 21 49 C20.6596875 48.2265625 20.6596875 48.2265625 20.3125 47.4375 C19.19170117 45.35601645 18.01578433 43.58752537 16.625 41.6875 C12.59884043 36.13376812 9.61093521 30.35705963 7 24 C6.525625 22.948125 6.05125 21.89625 5.5625 20.8125 C-0.36670164 6.90410679 -0.36670164 6.90410679 0 0 Z " fill="#2FC67A" transform="translate(563,554)"/>
<path d="M0 0 C3.91391305 1.52845814 5.76645866 3.90884997 8.3125 7.1875 C11.56619447 11.28554163 14.88960633 15.06446525 18.6875 18.66015625 C20 20 20 20 21 22 C21.99 22.33 22.98 22.66 24 23 C24.05671875 23.6909375 24.1134375 24.381875 24.171875 25.09375 C25.28554243 29.00209231 27.60606112 31.52470586 30.25 34.5 C30.72824219 35.05558594 31.20648437 35.61117187 31.69921875 36.18359375 C34.66616002 39.60080253 37.79658726 42.80214874 41 46 C41.5775 46.804375 42.155 47.60875 42.75 48.4375 C45.96402252 52.09791454 49.88588062 54.44186167 54 57 C50.79937313 58.60031344 48.27728194 57.03173691 45 56 C45 55.01 45 54.02 45 53 C44.21625 52.9175 43.4325 52.835 42.625 52.75 C41.75875 52.5025 40.8925 52.255 40 52 C39.29848848 50.6846659 38.63474075 49.34882408 38 48 C37.236875 47.608125 36.47375 47.21625 35.6875 46.8125 C32.22457326 44.47703778 31.0810302 41.86580666 29.1875 38.21484375 C26.83592713 33.82885092 23.55188463 30.43348848 20 27 C18.0276801 25.0276801 17.10526098 23.52631081 16 21 C16 20.34 16 19.68 16 19 C15.34 19 14.68 19 14 19 C14 18.34 14 17.68 14 17 C13.34 17 12.68 17 12 17 C8 12.52941176 8 12.52941176 8 10 C6.68 10 5.36 10 4 10 C4 9.01 4 8.02 4 7 C3.34 7 2.68 7 2 7 C0 4 0 4 0 0 Z " fill="#33B471" transform="translate(687,671)"/>
<path d="M0 0 C4.59053262 3.74737357 8.53976847 7.60407267 12.37109375 12.12109375 C14.11365848 14.18350141 14.11365848 14.18350141 16.6875 16.625 C20.10512268 20.13499086 22.50208274 24.10374894 24.875 28.375 C27.86046994 32.61063548 32.29349341 34.62261446 36.75195312 37.00146484 C41.78350463 39.7293341 45.25202782 42.71660322 49 47 C46 48 46 48 43.87890625 47.07421875 C43.11449219 46.61660156 42.35007812 46.15898438 41.5625 45.6875 C38.22339796 43.71051904 38.22339796 43.71051904 34.76171875 41.96484375 C33 41 33 41 32.25 38.875 C32.1675 38.25625 32.085 37.6375 32 37 C30.02 37.495 30.02 37.495 28 38 C25 33.375 25 33.375 25 30 C24.01 29.67 23.02 29.34 22 29 C20.68359375 27.40625 20.68359375 27.40625 19.4375 25.5 C17.68380605 22.74463406 17.68380605 22.74463406 15 21 C15 20.34 15 19.68 15 19 C14.01 18.67 13.02 18.34 12 18 C12 16.68 12 15.36 12 14 C10.68 13.67 9.36 13.34 8 13 C8 12.01 8 11.02 8 10 C6.35 9.67 4.7 9.34 3 9 C3 7.68 3 6.36 3 5 C2.01 4.67 1.02 4.34 0 4 C0 2.68 0 1.36 0 0 Z " fill="#31B570" transform="translate(812,795)"/>
<path d="M0 0 C3 0 3 0 5.1875 1.8125 C7 4 7 4 7 7 C7.66 7 8.32 7 9 7 C9 7.99 9 8.98 9 10 C9.99 10.33 10.98 10.66 12 11 C12.33 12.65 12.66 14.3 13 16 C13.66 16 14.32 16 15 16 C16.7265625 17.86328125 16.7265625 17.86328125 18.625 20.3125 C19.25664063 21.11300781 19.88828125 21.91351562 20.5390625 22.73828125 C22 25 22 25 22 28 C22.99 28.33 23.98 28.66 25 29 C25.103125 29.78375 25.20625 30.5675 25.3125 31.375 C25.77595022 34.33045181 25.77595022 34.33045181 29 36 C32 41.33333333 32 41.33333333 32 44 C32.66 44 33.32 44 34 44 C34.2475 44.94875 34.495 45.8975 34.75 46.875 C35.6857077 50.08693191 35.6857077 50.08693191 38.125 51.375 C38.74375 51.58125 39.3625 51.7875 40 52 C40 53.32 40 54.64 40 56 C36.28678738 53.28162421 33.96295275 50.76421038 31.625 46.8125 C28.85838465 42.29188669 25.87369103 38.13986194 22.56640625 34.00390625 C21.19840068 32.25381433 19.95461897 30.4891822 18.75 28.625 C17.20274327 26.08691719 17.20274327 26.08691719 15.56640625 24.66015625 C13.59460437 22.57034129 12.49599774 20.36821596 11.1875 17.8125 C8.88006129 13.46231629 6.37822304 9.58902492 3.296875 5.75390625 C1.94000504 3.91886224 0.96225449 2.06521601 0 0 Z " fill="#32B671" transform="translate(584,603)"/>
<path d="M0 0 C4.8302353 3.93158687 9.27999887 8.1698327 13.6875 12.5625 C14.24590576 13.11639404 14.80431152 13.67028809 15.37963867 14.2409668 C17.80636662 16.67640701 20.06435401 19.08098354 22.20703125 21.77734375 C23.98128426 24.203708 23.98128426 24.203708 27 26 C27 26.66 27 27.32 27 28 C28.32 28.66 29.64 29.32 31 30 C31 36.93 31 43.86 31 51 C22 53.25 22 53.25 17.5 53.125 C16.6440625 53.10695313 15.788125 53.08890625 14.90625 53.0703125 C14.2771875 53.04710937 13.648125 53.02390625 13 53 C12.67 52.34 12.34 51.68 12 51 C15.00313748 49.49843126 17.79067522 49.90718796 21.125 49.9375 C22.40632812 49.94652344 23.68765625 49.95554687 25.0078125 49.96484375 C25.99523437 49.97644531 26.98265625 49.98804688 28 50 C29.34328308 38.6850798 29.34328308 38.6850798 26.21875 28.25 C24.21994467 26.61717311 22.20161191 25.33177863 20 24 C20 23.34 20 22.68 20 22 C19.34 22 18.68 22 18 22 C18 21.34 18 20.68 18 20 C17.2575 19.773125 16.515 19.54625 15.75 19.3125 C12.4574253 17.7410439 11.02502891 16.00004284 9 13 C9 12.34 9 11.68 9 11 C8.01 10.67 7.02 10.34 6 10 C4.39453125 8.22265625 4.39453125 8.22265625 2.8125 6.0625 C2.28269531 5.35222656 1.75289062 4.64195312 1.20703125 3.91015625 C0 2 0 2 0 0 Z " fill="#36B272" transform="translate(925,907)"/>
<path d="M0 0 C13.2 0 26.4 0 40 0 C40 0.33 40 0.66 40 1 C32.08 1.495 32.08 1.495 24 2 C24 2.66 24 3.32 24 4 C8.66755906 5.13573637 -6.63201049 5.10674496 -22 5 C-18.25439453 1.05761719 -18.25439453 1.05761719 -15.96484375 0.5390625 C-12.17426609 0.69974209 -10.21436529 0.85708981 -7 3 C-7 2.34 -7 1.68 -7 1 C-5.68 1 -4.36 1 -3 1 C-3 1.66 -3 2.32 -3 3 C-2.01 3 -1.02 3 0 3 C0 2.01 0 1.02 0 0 Z " fill="#ABABA9" transform="translate(751,98)"/>
<path d="M0 0 C1.98 0.99 1.98 0.99 4 2 C4 2.99 4 3.98 4 5 C4.99 5 5.98 5 7 5 C7.4125 6.11375 7.825 7.2275 8.25 8.375 C9.41565568 11.31813696 9.41565568 11.31813696 12 13 C15.25438355 14.62719177 15.70359632 17.73080811 17 21 C17.556875 21.721875 18.11375 22.44375 18.6875 23.1875 C20 25 20 25 20 29 C20.61875 29.103125 21.2375 29.20625 21.875 29.3125 C24 30 24 30 26 33 C26.125 36.1875 26.125 36.1875 26 39 C23.28698835 37.64349417 22.57203376 35.59566891 21.15039062 33.01416016 C18.80496221 28.90766941 16.03807012 25.0599053 13.359375 21.16601562 C10 16.21193731 10 16.21193731 10 14 C9.34 14 8.68 14 8 14 C6.5625 11.953125 6.5625 11.953125 5 9.25 C4.484375 8.36828125 3.96875 7.4865625 3.4375 6.578125 C2.22849521 4.4098012 1.08486923 2.23232706 0 0 Z " fill="#3AB470" transform="translate(725,803)"/>
<path d="M0 0 C-0.71875 1.95703125 -0.71875 1.95703125 -2 4 C-4.09375 4.57421875 -4.09375 4.57421875 -6.5 4.6875 C-9.8786171 4.83863315 -9.8786171 4.83863315 -13 6 C-15.36078319 6.14349242 -17.72533482 6.22661623 -20.08984375 6.28125 C-21.14033653 6.30886414 -21.14033653 6.30886414 -22.21205139 6.33703613 C-24.45378163 6.39582907 -26.69558842 6.44861636 -28.9375 6.5 C-31.88427426 6.5676983 -34.83080884 6.64140058 -37.77734375 6.71875 C-39.08952881 6.74904297 -40.40171387 6.77933594 -41.75366211 6.81054688 C-45.01198664 6.85931752 -45.01198664 6.85931752 -48 8 C-48 7.01 -48 6.02 -48 5 C-44.28832638 3.8513433 -40.69663773 3.79457567 -36.828125 3.68359375 C-36.1457074 3.66281265 -35.46328979 3.64203156 -34.76019287 3.62062073 C-32.59022644 3.55547948 -30.42014376 3.49640596 -28.25 3.4375 C-26.77472779 3.39428103 -25.29946713 3.35066568 -23.82421875 3.30664062 C-20.21626834 3.19983482 -16.60818867 3.09846847 -13 3 C-13 2.34 -13 1.68 -13 1 C-8.62426048 0.40667939 -4.42471556 -0.13827236 0 0 Z " fill="#022B0F" transform="translate(953,959)"/>
<path d="M0 0 C1.32 0 2.64 0 4 0 C4 0.99 4 1.98 4 3 C4.66 3 5.32 3 6 3 C6.103125 3.639375 6.20625 4.27875 6.3125 4.9375 C6.539375 5.618125 6.76625 6.29875 7 7 C7.99 7.33 8.98 7.66 10 8 C10.6875 10.0625 10.6875 10.0625 11 12 C11.7425 12.12375 12.485 12.2475 13.25 12.375 C15.90324709 12.9780107 17.78778243 13.41984459 20 15 C20.75 17.625 20.75 17.625 21 20 C21.9075 20.2475 22.815 20.495 23.75 20.75 C27.12496123 22.04806201 28.74102121 23.21971841 31 26 C31 26.66 31 27.32 31 28 C29.68 28 28.36 28 27 28 C27 27.01 27 26.02 27 25 C26.29875 24.773125 25.5975 24.54625 24.875 24.3125 C20.90787162 22.50141965 17.0010918 20.0021836 15 16 C14.236875 15.54625 13.47375 15.0925 12.6875 14.625 C9.97778437 12.9865673 8.03895987 11.41654503 6 9 C6 8.01 6 7.02 6 6 C5.01 6 4.02 6 3 6 C2.01 4.02 1.02 2.04 0 0 Z " fill="#35B972" transform="translate(811,929)"/>
<path d="M0 0 C4.08722038 2.59189585 7.7018989 5.38247178 11.2890625 8.6328125 C12.96125062 10.06668168 12.96125062 10.06668168 14.9765625 10.98828125 C17.20667255 12.10333627 18.87142781 13.42878444 20.75 15.0625 C21.36359375 15.58972656 21.9771875 16.11695313 22.609375 16.66015625 C23.06828125 17.10230469 23.5271875 17.54445313 24 18 C24 18.33 24 18.66 24 19 C22.35 19 20.7 19 19 19 C19 18.01 19 17.02 19 16 C18.38125 15.855625 17.7625 15.71125 17.125 15.5625 C15 15 15 15 13 14 C13 13.34 13 12.68 13 12 C11.02 11.34 9.04 10.68 7 10 C6.67 10.66 6.34 11.32 6 12 C5.67 11.34 5.34 10.68 5 10 C5.33 9.34 5.66 8.68 6 8 C5.34 8 4.68 8 4 8 C4 8.99 4 9.98 4 11 C3.34 11 2.68 11 2 11 C0.57741188 7.17679443 -0.24042276 4.08718695 0 0 Z " fill="#3CBB7B" transform="translate(563,554)"/>
<path d="M0 0 C2.97 0.33 5.94 0.66 9 1 C9 1.33 9 1.66 9 2 C16.92 2.33 24.84 2.66 33 3 C33 2.34 33 1.68 33 1 C32.01 0.67 31.02 0.34 30 0 C33.3 0 36.6 0 40 0 C38.68 0.33 37.36 0.66 36 1 C35.34 2.32 34.68 3.64 34 5 C23.44 5 12.88 5 2 5 C1.34 3.35 0.68 1.7 0 0 Z " fill="#032D10" transform="translate(862,964)"/>
<path d="M0 0 C2.43914492 2.43914492 2.28662523 3.21446431 2.4140625 6.5703125 C2.45273437 7.46621094 2.49140625 8.36210938 2.53125 9.28515625 C2.57765625 10.69087891 2.57765625 10.69087891 2.625 12.125 C2.66367187 13.06988281 2.70234375 14.01476562 2.7421875 14.98828125 C2.83661346 17.32532375 2.92218394 19.66235501 3 22 C4.98 22.33 6.96 22.66 9 23 C9 23.66 9 24.32 9 25 C9.67546875 25.09796875 10.3509375 25.1959375 11.046875 25.296875 C16.35512298 26.18669692 19.4220186 26.75942945 23 31 C25.63222962 32.25436187 25.63222962 32.25436187 28 33 C28 33.33 28 33.66 28 34 C26.72125 33.896875 25.4425 33.79375 24.125 33.6875 C23.04605469 33.60048828 23.04605469 33.60048828 21.9453125 33.51171875 C20 33 20 33 18 30 C15.66367631 29.1401634 13.31959644 28.6118919 10.8984375 28.0390625 C2.9350535 25.18426446 2.9350535 25.18426446 0 22 C-0.98659272 18.18929506 -0.75974909 14.59122908 -0.5 10.6875 C-0.46390625 9.66076172 -0.4278125 8.63402344 -0.390625 7.57617188 C-0.29651459 5.04695455 -0.16524592 2.5254026 0 0 Z " fill="#34A569" transform="translate(758,740)"/>
<path d="M0 0 C4.00647751 1.3354925 4.75744636 3.52765887 7 7 C7.66 7.33 8.32 7.66 9 8 C9.73075648 10.3140622 10.40138258 12.64828869 11 15 C11.66 15 12.32 15 13 15 C13.45375 16.134375 13.9075 17.26875 14.375 18.4375 C15.57095806 22.04721692 15.57095806 22.04721692 18 23 C18.33 23.99 18.66 24.98 19 26 C19.66 26.33 20.32 26.66 21 27 C22.57548683 29.62581138 23 30.87099787 23 34 C24.485 34.495 24.485 34.495 26 35 C26.33 36.98 26.66 38.96 27 41 C21.00081894 33.80098272 15.89231081 25.94494976 10.91015625 18.0234375 C9.47278193 15.74832968 8.02293791 13.48421155 6.55859375 11.2265625 C6.14464355 10.58750977 5.73069336 9.94845703 5.30419922 9.29003906 C4.48584393 8.02791188 3.66589363 6.76681725 2.84423828 5.50683594 C0 1.11108239 0 1.11108239 0 0 Z " fill="#3BB270" transform="translate(698,762)"/>
<path d="M0 0 C0.99 0.495 0.99 0.495 2 1 C2.33 6.94 2.66 12.88 3 19 C4.65 19.33 6.3 19.66 8 20 C14.11501581 21.5739519 18.5023548 23.5023548 23 28 C23 28.66 23 29.32 23 30 C18.125 28.25 18.125 28.25 17 26 C14.68149993 25.38567131 14.68149993 25.38567131 12 25 C9.25 24.5625 9.25 24.5625 7 24 C6.67 23.34 6.34 22.68 6 22 C4.02 21.34 2.04 20.68 0 20 C0 13.4 0 6.8 0 0 Z " fill="#01210A" transform="translate(760,742)"/>
<path d="M0 0 C1.45702971 0.00502424 2.9140611 0.00958551 4.37109375 0.01367188 C7.9140977 0.02460612 11.45703797 0.04182 15 0.0625 C15 0.3925 15 0.7225 15 1.0625 C7.08 1.5575 7.08 1.5575 -1 2.0625 C-1 2.7225 -1 3.3825 -1 4.0625 C-3.89608593 4.11663245 -6.79115195 4.15623641 -9.6875 4.1875 C-10.91243164 4.21263672 -10.91243164 4.21263672 -12.16210938 4.23828125 C-16.57092929 4.2739802 -19.98731576 4.13830814 -24 2.0625 C-24 1.7325 -24 1.4025 -24 1.0625 C-16.03350151 -0.2548767 -8.04805625 -0.04839426 0 0 Z " fill="#929491" transform="translate(776,97.9375)"/>
<path d="M0 0 C0.99 0.33 1.98 0.66 3 1 C3 7.93 3 14.86 3 22 C-6 24.25 -6 24.25 -10.5 24.125 C-11.3559375 24.10695313 -12.211875 24.08890625 -13.09375 24.0703125 C-13.7228125 24.04710937 -14.351875 24.02390625 -15 24 C-15.33 23.34 -15.66 22.68 -16 22 C-11.53794887 19.76897444 -4.78092876 20.95653701 0 21 C0 14.07 0 7.14 0 0 Z " fill="#42BA7E" transform="translate(953,936)"/>
<path d="M0 0 C9.24 0 18.48 0 28 0 C28 0.33 28 0.66 28 1 C24.37 1.33 20.74 1.66 17 2 C17.66 2.66 18.32 3.32 19 4 C18 5 18 5 15.31616211 5.11352539 C14.14835205 5.10828857 12.98054199 5.10305176 11.77734375 5.09765625 C10.51728516 5.09443359 9.25722656 5.09121094 7.95898438 5.08789062 C6.61848891 5.07953403 5.27799412 5.07106907 3.9375 5.0625 C2.59310058 5.0574866 1.2486994 5.05292342 -0.09570312 5.04882812 C-3.39717941 5.03699488 -6.69856803 5.02050971 -10 5 C-10 4.67 -10 4.34 -10 4 C-5.545 3.505 -5.545 3.505 -1 3 C-0.67 2.01 -0.34 1.02 0 0 Z " fill="#B4B6B2" transform="translate(668,103)"/>
<path d="M0 0 C3.88892178 2.29346669 6.87241035 4.80045323 10 8.0625 C14.45429445 12.65408434 19.30293173 16.51616666 24.390625 20.36938477 C28.90457458 23.80914917 28.90457458 23.80914917 30 26 C28.02 25.67 26.04 25.34 24 25 C24 24.34 24 23.68 24 23 C23.4225 22.95875 22.845 22.9175 22.25 22.875 C20 22 20 22 18.1875 19.1875 C15.486171 15.25127774 13.21588703 14.10794352 9 12 C9 11.01 9 10.02 9 9 C8.443125 8.938125 7.88625 8.87625 7.3125 8.8125 C3.98470782 7.64327572 2.26866168 5.64677196 0 3 C0 2.01 0 1.02 0 0 Z " fill="#37BC77" transform="translate(894,881)"/>
<path d="M0 0 C1.95963427 0.00502803 3.91926979 0.00958862 5.87890625 0.01367188 C10.62763585 0.02456734 15.37630362 0.04175915 20.125 0.0625 C20.125 0.3925 20.125 0.7225 20.125 1.0625 C18.90393555 1.07708252 17.68287109 1.09166504 16.42480469 1.10668945 C11.89211828 1.16468565 7.35992796 1.24191857 2.82763672 1.32495117 C0.86645564 1.35819428 -1.09482098 1.38622815 -3.05615234 1.40893555 C-5.87639047 1.44249281 -8.69575365 1.49480899 -11.515625 1.55078125 C-12.82989471 1.56036613 -12.82989471 1.56036613 -14.17071533 1.57014465 C-18.7375923 1.68031177 -21.4035126 1.81704311 -24.875 5.0625 C-27.671875 5.35546875 -27.671875 5.35546875 -30.625 5.25 C-32.10226562 5.20939453 -32.10226562 5.20939453 -33.609375 5.16796875 C-34.73085938 5.11576172 -34.73085938 5.11576172 -35.875 5.0625 C-35.875 4.7325 -35.875 4.4025 -35.875 4.0625 C-32.575 4.0625 -29.275 4.0625 -25.875 4.0625 C-25.875 3.4025 -25.875 2.7425 -25.875 2.0625 C-26.7 2.2275 -27.525 2.3925 -28.375 2.5625 C-32.28772317 3.12146045 -35.92683173 3.13057187 -39.875 3.0625 C-29.60525623 -2.98476013 -11.60807122 -0.05225308 0 0 Z " fill="#373936" transform="translate(587.875,112.9375)"/>
<path d="M0 0 C3.96790076 1.67872725 6.86931494 4.08277074 10 7 C10 7.99 10 8.98 10 10 C11.60875 10.061875 11.60875 10.061875 13.25 10.125 C17 11 17 11 19.4375 14.0625 C19.953125 15.031875 20.46875 16.00125 21 17 C19.68 17.33 18.36 17.66 17 18 C16.67 17.01 16.34 16.02 16 15 C14.06381575 14.32843384 14.06381575 14.32843384 12 14 C11.34 13.67 10.68 13.34 10 13 C10 12.34 10 11.68 10 11 C9.34 11 8.68 11 8 11 C6.5625 9.50390625 6.5625 9.50390625 5 7.5625 C2.85474956 4.84811762 2.85474956 4.84811762 0 3 C0 2.01 0 1.02 0 0 Z " fill="#31BF79" transform="translate(600,585)"/>
<path d="M0 0 C0.66 0 1.32 0 2 0 C2 0.66 2 1.32 2 2 C2.66 2 3.32 2 4 2 C4 2.66 4 3.32 4 4 C5.32 4.66 6.64 5.32 8 6 C8 6.99 8 7.98 8 9 C8.66 9 9.32 9 10 9 C10.45375 10.134375 10.9075 11.26875 11.375 12.4375 C12.57095806 16.04721692 12.57095806 16.04721692 15 17 C15 18.98 15 20.96 15 23 C8.44496973 16.91318618 4.29387147 8.75550381 0 1 C0 0.67 0 0.34 0 0 Z " fill="#2FC274" transform="translate(768,867)"/>
<path d="M0 0 C6.18881494 2.81607452 11.24962205 6.66475811 16.375 11.0625 C16.98166504 11.58102539 17.58833008 12.09955078 18.21337891 12.63378906 C21.1763099 15.22169694 23.80085612 17.70128418 26 21 C22.88742431 21 20.89234315 20.82638376 18 20 C18 18.02 18 16.04 18 14 C16.68 13.67 15.36 13.34 14 13 C14 12.34 14 11.68 14 11 C13.236875 10.731875 12.47375 10.46375 11.6875 10.1875 C9.05635874 9.0249027 7.94262348 8.02708537 6 6 C3.90010348 4.82425289 3.90010348 4.82425289 2 4 C2 3.34 2 2.68 2 2 C1.34 2 0.68 2 0 2 C0 1.34 0 0.68 0 0 Z " fill="#38B674" transform="translate(786,774)"/>
<path d="M0 0 C0 3.81848118 -1.45838778 4.82924793 -4.03962708 7.45646667 C-4.62080795 8.03157486 -5.20198883 8.60668304 -5.80078125 9.19921875 C-6.68904854 10.09179131 -6.68904854 10.09179131 -7.59526062 11.00239563 C-8.85010104 12.25927881 -10.10874303 13.51237625 -11.37084961 14.76196289 C-13.30483606 16.67989966 -15.22232684 18.61328271 -17.13867188 20.54882812 C-18.35841423 21.76658809 -19.57908686 22.98341713 -20.80078125 24.19921875 C-21.37588943 24.78039963 -21.95099762 25.36158051 -22.54353333 25.96037292 C-26.65511802 30 -26.65511802 30 -30 30 C-29.67 28.68 -29.34 27.36 -29 26 C-28.67 26.66 -28.34 27.32 -28 28 C-27.21625 27.01 -26.4325 26.02 -25.625 25 C-24.75875 24.01 -23.8925 23.02 -23 22 C-22.34 22 -21.68 22 -21 22 C-20.74089844 21.40316406 -20.48179688 20.80632813 -20.21484375 20.19140625 C-18.90070025 17.8208773 -17.65528302 16.638702 -15.5625 14.9375 C-10.0482321 10.28642321 -5.05442686 5.13804789 0 0 Z " fill="#2D2F2D" transform="translate(145,898)"/>
<path d="M0 0 C0.33 0.99 0.66 1.98 1 3 C0.57589844 3.4125 0.15179688 3.825 -0.28515625 4.25 C-3.52685864 7.44183005 -6.64806384 10.68353095 -9.625 14.125 C-17.59088486 23.29999239 -17.59088486 23.29999239 -23 25 C-19.96997286 21.37874805 -16.93217419 17.87118461 -13.5625 14.5625 C-10.39195952 11.44819971 -7.46739422 8.1721895 -4.578125 4.796875 C-3.11118731 3.12659942 -1.59043707 1.55211328 0 0 Z " fill="#2B2C29" transform="translate(499,535)"/>
<path d="M0 0 C4.07583802 1.2322301 7.38522281 2.77552173 11 5 C11.804375 5.2475 12.60875 5.495 13.4375 5.75 C17.24865313 7.60909909 19.42941994 10.69623044 22 14 C17.92886492 13.50652908 15.08432353 12.06351038 11.64453125 9.97265625 C9.92381344 8.9049307 9.92381344 8.9049307 7.625 8 C6 7 6 7 5.25 4.875 C5.12625 3.946875 5.12625 3.946875 5 3 C3.68 3.33 2.36 3.66 1 4 C0.67 2.68 0.34 1.36 0 0 Z " fill="#28CB7A" transform="translate(839,829)"/>
<path d="M0 0 C0 3 0 3 -2.5703125 5.91088867 C-3.74753841 7.08763873 -4.93304138 8.25614424 -6.125 9.41796875 C-6.74648926 10.03521317 -7.36797852 10.65245758 -8.00830078 11.28840637 C-9.99861833 13.26190579 -11.99910395 15.22473225 -14 17.1875 C-15.34964009 18.52209737 -16.69860736 19.85737551 -18.046875 21.19335938 C-21.35682227 24.47019575 -24.67592738 27.73749597 -28 31 C-28.66 30.67 -29.32 30.34 -30 30 C-29.3498291 29.35768433 -29.3498291 29.35768433 -28.68652344 28.70239258 C-26.70499954 26.74178536 -24.72747941 24.7771861 -22.75 22.8125 C-22.06808594 22.13896484 -21.38617188 21.46542969 -20.68359375 20.77148438 C-17.83435252 17.93607441 -15.13498552 15.17096675 -12.640625 12.01171875 C-12.09921875 11.34785156 -11.5578125 10.68398438 -11 10 C-10.34 10 -9.68 10 -9 10 C-8.67 9.01 -8.34 8.02 -8 7 C-6.15234375 5.17578125 -6.15234375 5.17578125 -3.9375 3.3125 C-3.20402344 2.68988281 -2.47054688 2.06726563 -1.71484375 1.42578125 C-1.14894531 0.95527344 -0.58304687 0.48476563 0 0 Z " fill="#222220" transform="translate(353,680)"/>
<path d="M0 0 C0.69029297 -0.00064453 1.38058594 -0.00128906 2.09179688 -0.00195312 C5.13968775 0.03120889 7.52479197 0.21659732 10.4375 1.1875 C10.4375 1.8475 10.4375 2.5075 10.4375 3.1875 C0.2075 3.1875 -10.0225 3.1875 -20.5625 3.1875 C-20.5625 2.8575 -20.5625 2.5275 -20.5625 2.1875 C-13.68699206 0.72905892 -7.01454885 -0.0063943 0 0 Z " fill="#2F955C" transform="translate(884.5625,963.8125)"/>
<path d="M0 0 C5.25838655 2.53853144 7.61965633 4.55921446 10 10 C10 10.66 10 11.32 10 12 C10.66 12 11.32 12 12 12 C12.2475 12.94875 12.495 13.8975 12.75 14.875 C13.6857077 18.08693191 13.6857077 18.08693191 16.125 19.375 C16.74375 19.58125 17.3625 19.7875 18 20 C18 21.32 18 22.64 18 24 C14.23761844 21.25378303 11.92318484 18.68990811 9.5625 14.6875 C7.42885592 11.18757507 5.28968775 7.99915417 2.5625 4.9375 C0 2 0 2 0 0 Z " fill="#34B16E" transform="translate(606,635)"/>
<path d="M0 0 C0.680625 -0.00708984 1.36125 -0.01417969 2.0625 -0.02148438 C4.0390625 0.00390625 4.0390625 0.00390625 7.375 0.4375 C8.035 1.4275 8.695 2.4175 9.375 3.4375 C8.375 4.4375 8.375 4.4375 6.42553711 4.55102539 C5.5928833 4.54578857 4.76022949 4.54055176 3.90234375 4.53515625 C3.00322266 4.53193359 2.10410156 4.52871094 1.17773438 4.52539062 C0.23220703 4.51701172 -0.71332031 4.50863281 -1.6875 4.5 C-2.63689453 4.49548828 -3.58628906 4.49097656 -4.56445312 4.48632812 C-6.91803065 4.4745011 -9.27148477 4.45802025 -11.625 4.4375 C-8.27088744 0.09435424 -5.19019485 -0.15411498 0 0 Z " fill="#7F7E7A" transform="translate(319.625,134.5625)"/>
<path d="M0 0 C6.13285296 0.90504238 10.3441833 1.69336955 15 6 C17.61051318 7.83474747 20.24907381 9.62437249 22.890625 11.4140625 C25 13 25 13 26 15 C22.51669784 14.35494404 19.90567134 13.01782732 17 11 C17 10.34 17 9.68 17 9 C15.865625 8.731875 14.73125 8.46375 13.5625 8.1875 C12.386875 7.795625 11.21125 7.40375 10 7 C9.67 6.01 9.34 5.02 9 4 C6.89415562 3.19436362 6.89415562 3.19436362 4.4375 2.8125 C3.61121094 2.65394531 2.78492188 2.49539063 1.93359375 2.33203125 C1.29550781 2.22246094 0.65742187 2.11289062 0 2 C0 1.34 0 0.68 0 0 Z " fill="#38B172" transform="translate(644,640)"/>
<path d="M0 0 C2.91517292 1.07401108 4.77810176 1.77810176 7 4 C7.72144297 5.70522885 8.440238 7.41174989 9.1328125 9.12890625 C10.0752242 11.30918276 10.0752242 11.30918276 12.25 14.1875 C14 17 14 17 13.609375 19.17578125 C13.40828125 19.77777344 13.2071875 20.37976563 13 21 C12.39671875 20.03578125 11.7934375 19.0715625 11.171875 18.078125 C10.36485689 16.80191031 9.55754992 15.52587824 8.75 14.25 C8.15638672 13.29867187 8.15638672 13.29867187 7.55078125 12.328125 C5.75024669 9.49449684 4.10673032 7.10527821 1.703125 4.734375 C0 3 0 3 0 0 Z " fill="#33BA71" transform="translate(754,846)"/>
<path d="M0 0 C7.71903935 7.30179398 7.71903935 7.30179398 8.23706055 12.27661133 C8.29509092 14.9614663 8.26148709 17.62809662 8.1875 20.3125 C8.17396484 21.24384766 8.16042969 22.17519531 8.14648438 23.13476562 C8.11126882 25.42377646 8.06202099 27.71158458 8 30 C7.67 30 7.34 30 7 30 C6.93941406 28.96359375 6.87882813 27.9271875 6.81640625 26.859375 C6.73196629 25.48957127 6.64732003 24.11978025 6.5625 22.75 C6.52318359 22.06808594 6.48386719 21.38617187 6.44335938 20.68359375 C6.19981333 15.75123333 6.19981333 15.75123333 5 11 C4.34 10.67 3.68 10.34 3 10 C0.50240724 6.54179464 -0.36541918 4.26322371 0 0 Z " fill="#2B895A" transform="translate(627,606)"/>
<path d="M0 0 C0.33 0.66 0.66 1.32 1 2 C-0.10958403 5.3287521 -0.92544504 6.01489699 -3.5625 8.1875 C-7.94958964 11.90026302 -11.9864508 15.89038181 -16 20 C-16.99 19.67 -17.98 19.34 -19 19 C-18.01 18.67 -17.02 18.34 -16 18 C-15.29904826 16.6843675 -14.63616845 15.3481513 -14 14 C-12.48779297 12.26074219 -12.48779297 12.26074219 -10.7421875 10.546875 C-9.80439453 9.61875 -9.80439453 9.61875 -8.84765625 8.671875 C-8.19667969 8.03765625 -7.54570312 7.4034375 -6.875 6.75 C-6.21628906 6.1003125 -5.55757812 5.450625 -4.87890625 4.78125 C-3.25703357 3.18288273 -1.6306719 1.58938103 0 0 Z " fill="#2D2E2C" transform="translate(182,861)"/>
<path d="M0 0 C6.84445 2.94191272 11.15852456 9.8536393 15 16 C13.02 15.34 11.04 14.68 9 14 C9 13.34 9 12.68 9 12 C8.34 12 7.68 12 7 12 C5.5 10 5.5 10 4 8 C3.34 8 2.68 8 2 8 C1.34 5.36 0.68 2.72 0 0 Z " fill="#2FAD6C" transform="translate(867,851)"/>
<path d="M0 0 C3.8173572 2.14211411 6.99543347 4.57673665 10.25 7.5 C11.55710937 8.66015625 11.55710937 8.66015625 12.890625 9.84375 C15 12 15 12 16 15 C9.29090909 12.39090909 9.29090909 12.39090909 7 11 C6.67 10.01 6.34 9.02 6 8 C4.67151309 6.99357052 3.33849671 5.99307821 2 5 C2 4.34 2 3.68 2 3 C1.34 3 0.68 3 0 3 C0 2.01 0 1.02 0 0 Z " fill="#2FB773" transform="translate(671,656)"/>
<path d="M0 0 C0.33 0 0.66 0 1 0 C1.65031566 7.47863013 -0.86854257 13.80281386 -5 20 C-5.57605248 21.38199747 -6.11703521 22.77905218 -6.625 24.1875 C-6.88539062 24.90292969 -7.14578125 25.61835937 -7.4140625 26.35546875 C-7.60742188 26.89816406 -7.80078125 27.44085937 -8 28 C-8.66 28 -9.32 28 -10 28 C-9.74223171 22.07132938 -7.68747961 18.37435439 -4.47265625 13.4296875 C-1.83516571 9.07817791 -0.70068253 5.02155813 0 0 Z " fill="#B2B4B1" transform="translate(115,899)"/>
<path d="M0 0 C0.66 0.33 1.32 0.66 2 1 C1.09674384 2.32176485 0.17682097 3.63215066 -0.75 4.9375 C-1.26046875 5.66839844 -1.7709375 6.39929688 -2.296875 7.15234375 C-4.2739968 9.29724883 -5.24598737 9.33236057 -8 10 C-10.20149485 11.8394603 -10.20149485 11.8394603 -12.25 14.0625 C-12.95640625 14.79597656 -13.6628125 15.52945313 -14.390625 16.28515625 C-15.18726563 17.13400391 -15.18726563 17.13400391 -16 18 C-16.66 17.67 -17.32 17.34 -18 17 C-17.29230469 16.29359375 -16.58460938 15.5871875 -15.85546875 14.859375 C-13.95530426 12.95988029 -12.06284655 11.05312948 -10.17578125 9.140625 C-9.22136663 8.17707098 -8.26693948 7.21352938 -7.3125 6.25 C-6.82716797 5.75628906 -6.34183594 5.26257813 -5.84179688 4.75390625 C-2.22565901 1.11282951 -2.22565901 1.11282951 0 0 Z " fill="#343432" transform="translate(532,504)"/>
<path d="M0 0 C0.99773437 0.02320313 1.99546875 0.04640625 3.0234375 0.0703125 C4.52777344 0.09738281 4.52777344 0.09738281 6.0625 0.125 C6.83335937 0.14820313 7.60421875 0.17140625 8.3984375 0.1953125 C8.3984375 0.8553125 8.3984375 1.5153125 8.3984375 2.1953125 C9.3884375 1.8653125 10.3784375 1.5353125 11.3984375 1.1953125 C11.3984375 1.8553125 11.3984375 2.5153125 11.3984375 3.1953125 C2.38018863 4.26527423 -6.53820374 4.29765909 -15.6015625 4.1953125 C-15.6015625 3.8653125 -15.6015625 3.5353125 -15.6015625 3.1953125 C-14.83070313 3.14632812 -14.05984375 3.09734375 -13.265625 3.046875 C-12.26273438 2.97210938 -11.25984375 2.89734375 -10.2265625 2.8203125 C-9.22882813 2.75070313 -8.23109375 2.68109375 -7.203125 2.609375 C-3.90032912 2.08370478 -3.34736756 0.25130387 0 0 Z " fill="#989994" transform="translate(262.6015625,139.8046875)"/>
<path d="M0 0 C1.09054687 0.02320312 2.18109375 0.04640625 3.3046875 0.0703125 C4.40039062 0.08835937 5.49609375 0.10640625 6.625 0.125 C7.46804688 0.14820312 8.31109375 0.17140625 9.1796875 0.1953125 C9.5096875 1.1853125 9.8396875 2.1753125 10.1796875 3.1953125 C5.66153469 4.07809005 1.40456056 4.30120753 -3.1953125 4.2578125 C-5.06316406 4.24427734 -5.06316406 4.24427734 -6.96875 4.23046875 C-8.38027344 4.21306641 -8.38027344 4.21306641 -9.8203125 4.1953125 C-9.8203125 3.8653125 -9.8203125 3.5353125 -9.8203125 3.1953125 C-9.0365625 3.0715625 -8.2528125 2.9478125 -7.4453125 2.8203125 C-4.10496733 2.02499222 -3.49309587 0.24190415 0 0 Z " fill="#9FA4A0" transform="translate(604.8203125,108.8046875)"/>
<path d="M0 0 C0.66 0 1.32 0 2 0 C2 0.66 2 1.32 2 2 C2.78375 2.144375 3.5675 2.28875 4.375 2.4375 C7 3 7 3 9 4 C9.8515625 5.84765625 9.8515625 5.84765625 10.625 8.0625 C10.88539063 8.79597656 11.14578125 9.52945313 11.4140625 10.28515625 C11.60742188 10.85105469 11.80078125 11.41695312 12 12 C8.8125 12.1875 8.8125 12.1875 5 11 C2.81867816 7.5228434 1.37880914 3.85685321 0 0 Z " fill="#2CD37E" transform="translate(624,659)"/>
<path d="M0 0 C0.66 0 1.32 0 2 0 C2 0.99 2 1.98 2 3 C2.66 3 3.32 3 4 3 C4.8908505 5.67255151 5.15518308 7.40314483 5.24609375 10.16015625 C5.27896484 10.95357422 5.31183594 11.74699219 5.34570312 12.56445312 C5.40703931 14.23358024 5.46431309 15.90286145 5.51757812 17.57226562 C5.55173828 18.36439453 5.58589844 19.15652344 5.62109375 19.97265625 C5.6461499 20.69718994 5.67120605 21.42172363 5.69702148 22.16821289 C5.85811423 24.24627451 5.85811423 24.24627451 8 26 C6.35 25.67 4.7 25.34 3 25 C2.98018066 24.42032471 2.96036133 23.84064941 2.93994141 23.2434082 C2.84427399 20.59934063 2.73476547 17.9560183 2.625 15.3125 C2.5940625 14.40048828 2.563125 13.48847656 2.53125 12.54882812 C2.33223046 7.98796369 2.14309878 4.13809725 0 0 Z " fill="#011C08" transform="translate(632,611)"/>
<path d="M0 0 C2.70026514 0.55232696 3.78474974 0.77706223 5.75 2.8125 C7 5 7 5 7 9 C7.928125 9.1546875 7.928125 9.1546875 8.875 9.3125 C11 10 11 10 13 13 C13.125 16.1875 13.125 16.1875 13 19 C10.35189831 17.67594916 9.67157989 15.77898961 8.28515625 13.25390625 C5.70400931 8.72709232 2.82002442 4.38054355 0 0 Z " fill="#31AE6B" transform="translate(738,823)"/>
<path d="M0 0 C0.66 0.33 1.32 0.66 2 1 C0.60770997 2.73202093 -0.78900556 4.46048484 -2.1875 6.1875 C-2.96480469 7.15042969 -3.74210938 8.11335937 -4.54296875 9.10546875 C-6.90713683 11.89060157 -9.3828739 14.45360704 -12 17 C-12.598125 17.598125 -13.19625 18.19625 -13.8125 18.8125 C-14.204375 19.204375 -14.59625 19.59625 -15 20 C-15.66 19.67 -16.32 19.34 -17 19 C-16.43152344 18.3709375 -15.86304688 17.741875 -15.27734375 17.09375 C-10.9172552 12.26052997 -6.58278663 7.40890036 -2.3125 2.49609375 C-1.56450684 1.64347059 -0.80201622 0.80201622 0 0 Z " fill="#454642" transform="translate(246,793)"/>
<path d="M0 0 C1.32 0 2.64 0 4 0 C4.61875 1.670625 4.61875 1.670625 5.25 3.375 C6.65691225 6.69318927 7.6823236 7.54851658 11 9 C12.8125 11.4375 12.8125 11.4375 14 14 C13.67 14.99 13.34 15.98 13 17 C7.69594735 11.84328214 3.31978345 6.63956691 0 0 Z " fill="#33B56D" transform="translate(798,912)"/>
<path d="M0 0 C3 1 3 1 4 2.875 C4.33 3.57625 4.66 4.2775 5 5 C5.515625 5.495 6.03125 5.99 6.5625 6.5 C8.26316011 8.27460185 8.58794182 9.61006256 9 12 C9.66 12 10.32 12 11 12 C14 17.75 14 17.75 14 20 C14.66 20.33 15.32 20.66 16 21 C15.01 21 14.02 21 13 21 C11.53191785 19.02536884 10.26672606 17.09808636 9 15 C8.21717894 13.79320569 7.43063931 12.58881638 6.640625 11.38671875 C5.84321063 10.15399457 5.04633972 8.92091868 4.25 7.6875 C3.83878906 7.05521484 3.42757812 6.42292969 3.00390625 5.77148438 C0 1.11592868 0 1.11592868 0 0 Z " fill="#39B26F" transform="translate(783,890)"/>
<path d="M0 0 C0 1.65 0 3.3 0 5 C-0.66 5 -1.32 5 -2 5 C-2 4.01 -2 3.02 -2 2 C-7.94 2.495 -7.94 2.495 -14 3 C-14 3.66 -14 4.32 -14 5 C-16 4 -16 4 -17 3 C-19.18292774 2.76518307 -21.37203174 2.58636677 -23.5625 2.4375 C-25.35880859 2.31181641 -25.35880859 2.31181641 -27.19140625 2.18359375 C-28.11824219 2.12300781 -29.04507813 2.06242187 -30 2 C-30 1.67 -30 1.34 -30 1 C-26.04900721 0.85712894 -22.09799792 0.71472426 -18.14697266 0.57275391 C-16.14094158 0.5005736 -14.13492385 0.42802266 -12.12890625 0.35546875 C-10.87207031 0.31035156 -9.61523438 0.26523438 -8.3203125 0.21875 C-7.15773926 0.17685547 -5.99516602 0.13496094 -4.79736328 0.09179688 C-3.19880994 0.03933955 -1.59941382 0 0 0 Z " fill="#454946" transform="translate(702,103)"/>
<path d="M0 0 C1.32 0.33 2.64 0.66 4 1 C2.71034824 2.37562854 1.37310707 3.70766393 0 5 C-0.66 5 -1.32 5 -2 5 C-2.226875 5.721875 -2.45375 6.44375 -2.6875 7.1875 C-4.24831013 10.53209313 -6.3031287 12.51603959 -9 15 C-9.66 14.67 -10.32 14.34 -11 14 C-10.21654285 12.82780457 -9.42297164 11.66236332 -8.625 10.5 C-8.18414062 9.8503125 -7.74328125 9.200625 -7.2890625 8.53125 C-6.86367188 8.0259375 -6.43828125 7.520625 -6 7 C-5.34 7 -4.68 7 -4 7 C-3.71125 6.401875 -3.4225 5.80375 -3.125 5.1875 C-2 3 -2 3 0 0 Z " fill="#787B77" transform="translate(361,616)"/>
<path d="M0 0 C2.06298828 -0.2487793 2.06298828 -0.2487793 4.5703125 -0.07421875 C5.46621094 -0.01943359 6.36210937 0.03535156 7.28515625 0.09179688 C8.22230469 0.16462891 9.15945313 0.23746094 10.125 0.3125 C11.06988281 0.37373047 12.01476562 0.43496094 12.98828125 0.49804688 C15.32681186 0.65158676 17.66342389 0.81946076 20 1 C18 3 18 3 15.93701172 3.22705078 C14.69588623 3.21134033 14.69588623 3.21134033 13.4296875 3.1953125 C12.53378906 3.18886719 11.63789063 3.18242188 10.71484375 3.17578125 C9.77769531 3.15902344 8.84054687 3.14226562 7.875 3.125 C6.93011719 3.11597656 5.98523438 3.10695313 5.01171875 3.09765625 C2.67422708 3.07404522 0.33723877 3.04111516 -2 3 C-1.34 2.01 -0.68 1.02 0 0 Z " fill="#BEBFBA" transform="translate(482,120)"/>
<path d="M0 0 C2.625 0.1875 2.625 0.1875 4.5625 0.6875 C7.27509956 1.34509989 9.84552358 1.25066992 12.625 1.1875 C12.625 1.8475 12.625 2.5075 12.625 3.1875 C4.6124678 4.22137512 -3.30405177 4.29216648 -11.375 4.1875 C-11.375 3.8575 -11.375 3.5275 -11.375 3.1875 C-10.26125 3.06375 -9.1475 2.94 -8 2.8125 C-4.32828632 2.17944592 -3.41080538 0.26927411 0 0 Z " fill="#B5B6B1" transform="translate(549.375,113.8125)"/>
<path d="M0 0 C3 1 3 1 4.765625 3.8203125 C7.38852898 7.55290663 9.69872296 8.84936148 13.75 10.875 C14.92046875 11.47054687 16.0909375 12.06609375 17.296875 12.6796875 C18.18890625 13.11539063 19.0809375 13.55109375 20 14 C18.68 14.33 17.36 14.66 16 15 C15.67 14.34 15.34 13.68 15 13 C13.00458132 12.31974363 11.00382009 11.65509503 9 11 C6.125 9.5625 6.125 9.5625 4 8 C4 7.01 4 6.02 4 5 C3.01 4.67 2.02 4.34 1 4 C0.3125 1.9375 0.3125 1.9375 0 0 Z " fill="#3DB476" transform="translate(833,820)"/>
<path d="M0 0 C6.93 0.33 13.86 0.66 21 1 C21 1.66 21 2.32 21 3 C17.87501937 3.02895976 14.7500731 3.04678483 11.625 3.0625 C10.73554688 3.07087891 9.84609375 3.07925781 8.9296875 3.08789062 C7.65351563 3.09272461 7.65351563 3.09272461 6.3515625 3.09765625 C5.17327881 3.10551147 5.17327881 3.10551147 3.97119141 3.11352539 C2 3 2 3 0 2 C0 1.34 0 0.68 0 0 Z " fill="#90918E" transform="translate(190,146)"/>
<path d="M0 0 C-3.08809695 1.76462683 -4.23312136 2 -8 2 C-8 2.99 -8 3.98 -8 5 C-10.31 5 -12.62 5 -15 5 C-15 4.34 -15 3.68 -15 3 C-16.32 2.34 -17.64 1.68 -19 1 C-12.61773055 0.17648136 -6.43255401 -0.12086218 0 0 Z " fill="#36AA6C" transform="translate(913,962)"/>
<path d="M0 0 C5.75 1.625 5.75 1.625 8 5 C9.68704236 6.13464018 9.68704236 6.13464018 11.5625 7.0625 C15 9 15 9 16 11 C14.68 11 13.36 11 12 11 C12 10.34 12 9.68 12 9 C10.6696875 8.9071875 10.6696875 8.9071875 9.3125 8.8125 C5.20688614 7.80546264 3.67600409 6.21120491 1 3 C0.67 2.01 0.34 1.02 0 0 Z " fill="#30AA68" transform="translate(742,729)"/>
<path d="M0 0 C0.33 0 0.66 0 1 0 C1 4.95 1 9.9 1 15 C2.794375 15.12375 4.58875 15.2475 6.4375 15.375 C9.49609375 15.5859375 9.49609375 15.5859375 12 16 C12.33 16.66 12.66 17.32 13 18 C9.17403486 19.37734745 5.92500718 18.7995385 2 18 C0 16 0 16 -0.1953125 12.3046875 C-0.182009 10.82799892 -0.15814835 9.35137642 -0.125 7.875 C-0.11146484 6.74384766 -0.11146484 6.74384766 -0.09765625 5.58984375 C-0.0740687 3.72642746 -0.03819719 1.86317407 0 0 Z " fill="#38B375" transform="translate(633,621)"/>
<path d="M0 0 C0.66 0.99 1.32 1.98 2 3 C0.625 4.5 0.625 4.5 -1 6 C-1.66 6 -2.32 6 -3 6 C-3.24492188 6.57234375 -3.48984375 7.1446875 -3.7421875 7.734375 C-5.21110099 10.38024402 -6.95348244 12.14853139 -9.125 14.25 C-9.84945312 14.95640625 -10.57390625 15.6628125 -11.3203125 16.390625 C-11.87460937 16.92171875 -12.42890625 17.4528125 -13 18 C-13 15 -13 15 -11.57421875 13.3515625 C-10.95160156 12.78179687 -10.32898438 12.21203125 -9.6875 11.625 C-6.86740365 8.93541112 -4.90168216 6.42302788 -3 3 C-1.3125 1.1875 -1.3125 1.1875 0 0 Z " fill="#242422" transform="translate(578,462)"/>
<path d="M0 0 C1.97119141 -0.2487793 1.97119141 -0.2487793 4.3515625 -0.07421875 C5.62773437 0.00795898 5.62773437 0.00795898 6.9296875 0.09179688 C7.81914062 0.16462891 8.70859375 0.23746094 9.625 0.3125 C10.5221875 0.37373047 11.419375 0.43496094 12.34375 0.49804688 C14.56386306 0.65156533 16.78194979 0.81943161 19 1 C18.67 1.66 18.34 2.32 18 3 C11.4 3 4.8 3 -2 3 C-1.34 2.01 -0.68 1.02 0 0 Z " fill="#C2C3BF" transform="translate(425,125)"/>
<path d="M0 0 C4.25209792 4.12324647 8.13635705 8.51282966 12 13 C9 14 9 14 6 13 C5.64587656 11.67203709 5.31478446 10.33783393 5 9 C4.525625 8.54625 4.05125 8.0925 3.5625 7.625 C1.39867306 5.37461998 0.85484398 2.95907532 0 0 Z " fill="#30B371" transform="translate(882,867)"/>
<path d="M0 0 C1.92050612 0.39859561 3.83635712 0.81965926 5.75 1.25 C6.81734375 1.48203125 7.8846875 1.7140625 8.984375 1.953125 C12.29463296 3.10228191 13.82894902 4.28091674 16 7 C16 7.66 16 8.32 16 9 C11.125 7.25 11.125 7.25 10 5 C7.65092125 4.31068656 7.65092125 4.31068656 4.9375 3.875 C4.01839844 3.70742188 3.09929688 3.53984375 2.15234375 3.3671875 C1.44207031 3.24601563 0.73179687 3.12484375 0 3 C0 2.01 0 1.02 0 0 Z " fill="#053315" transform="translate(767,763)"/>
<path d="M0 0 C1.32 0.33 2.64 0.66 4 1 C4 1.66 4 2.32 4 3 C4.66 3 5.32 3 6 3 C6 3.99 6 4.98 6 6 C6.66 6 7.32 6 8 6 C8 7.32 8 8.64 8 10 C8.66 10 9.32 10 10 10 C9.67 11.32 9.34 12.64 9 14 C3 8 3 8 2.9375 5.4375 C2.958125 4.633125 2.97875 3.82875 3 3 C2.34 3 1.68 3 1 3 C0.67 2.01 0.34 1.02 0 0 Z " fill="#31B871" transform="translate(684,742)"/>
<path d="M0 0 C0 3 0 3 -1.56054688 4.90112305 C-2.62885742 5.94586792 -2.62885742 5.94586792 -3.71875 7.01171875 C-4.48574219 7.76904297 -5.25273437 8.52636719 -6.04296875 9.30664062 C-6.85378906 10.09232422 -7.66460937 10.87800781 -8.5 11.6875 C-9.31082031 12.48478516 -10.12164062 13.28207031 -10.95703125 14.10351562 C-12.96482203 16.0758748 -14.9792687 18.04091492 -17 20 C-17.66 19.67 -18.32 19.34 -19 19 C-16.11184407 15.02878559 -12.81255476 12.01224187 -9.10546875 8.84765625 C-5.91726976 6.04984898 -2.95620854 3.03935191 0 0 Z " fill="#282827" transform="translate(467,568)"/>
<path d="M0 0 C8.25 0 16.5 0 25 0 C25 0.33 25 0.66 25 1 C20.05 1 15.1 1 10 1 C10 1.66 10 2.32 10 3 C7.36 3 4.72 3 2 3 C2 2.34 2 1.68 2 1 C1.34 0.67 0.68 0.34 0 0 Z " fill="#444542" transform="translate(773,99)"/>
<path d="M0 0 C0 4.91886814 -3.68826689 7.6051539 -7 11 C-9.27699716 13.08798002 -11.60502418 15.0449177 -14 17 C-14.66 16.67 -15.32 16.34 -16 16 C-10.72 10.72 -5.44 5.44 0 0 Z " fill="#2D2D2A" transform="translate(426,608)"/>
<path d="M0 0 C0.66 0.66 1.32 1.32 2 2 C1.86179081 6.97553077 -0.8861448 9.41906652 -4 13 C-4.33 13.99 -4.66 14.98 -5 16 C-5.66 15.67 -6.32 15.34 -7 15 C-4.86740246 9.8817659 -2.51449939 4.9422919 0 0 Z " fill="#5A5C5A" transform="translate(947,83)"/>
<path d="M0 0 C0.66 0 1.32 0 2 0 C2 0.99 2 1.98 2 3 C2.99 2.67 3.98 2.34 5 2 C7.1875 2.9375 7.1875 2.9375 9 4 C8.67 4.66 8.34 5.32 8 6 C5.9375 6.625 5.9375 6.625 4 7 C4 8.32 4 9.64 4 11 C3.34 11 2.68 11 2 11 C1.87625 9.865625 1.7525 8.73125 1.625 7.5625 C1.41875 6.386875 1.2125 5.21125 1 4 C0.34 3.67 -0.32 3.34 -1 3 C-0.67 2.01 -0.34 1.02 0 0 Z " fill="#32CE82" transform="translate(567,562)"/>
<path d="M0 0 C1.0725 -0.01417969 2.145 -0.02835938 3.25 -0.04296875 C6 0.1875 6 0.1875 8 2.1875 C3.03926578 3.51036246 -1.91111512 3.27643197 -7 3.1875 C-7.33 2.5275 -7.66 1.8675 -8 1.1875 C-5.27457733 -0.17521133 -3.03912726 0.01826399 0 0 Z " fill="#2DB772" transform="translate(945,956.8125)"/>
<path d="M0 0 C1.98 0.99 1.98 0.99 4 2 C4 3.98 4 5.96 4 8 C5.32 8.66 6.64 9.32 8 10 C8 11.32 8 12.64 8 14 C7.67 13.34 7.34 12.68 7 12 C6.01 12 5.02 12 4 12 C1.03176403 8.23262357 0.46101836 4.70238725 0 0 Z " fill="#2FC476" transform="translate(679,730)"/>
<path d="M0 0 C2 2 2 2 2.23046875 5.84375 C2.22647524 7.39589428 2.21170957 8.9480394 2.1875 10.5 C2.18685547 11.28503906 2.18621094 12.07007813 2.18554688 12.87890625 C2.14046848 18.71906304 2.14046848 18.71906304 1 21 C-0.32 20.67 -1.64 20.34 -3 20 C-2.34 18.35 -1.68 16.7 -1 15 C-0.34 15 0.32 15 1 15 C0.67 10.05 0.34 5.1 0 0 Z " fill="#2BCE7E" transform="translate(952,936)"/>
<path d="M0 0 C0.33 0.99 0.66 1.98 1 3 C3.00016466 4.20882096 3.00016466 4.20882096 5 5 C1.93109813 6.53445094 -0.70094266 5.54984289 -4 5 C-4 4.01 -4 3.02 -4 2 C-5.32 1.67 -6.64 1.34 -8 1 C-8 0.67 -8 0.34 -8 0 C-4.71303767 -0.79953138 -3.28976808 -1.09658936 0 0 Z " fill="#2C9D5F" transform="translate(850,957)"/>
<path d="M0 0 C0.64775391 0.86818359 0.64775391 0.86818359 1.30859375 1.75390625 C2.3723371 3.16649846 3.44644489 4.57140402 4.53515625 5.96484375 C7.2779569 9.50733564 9.64489215 12.66365488 11 17 C9 17 9 17 7.4375 15.6875 C6 14 6 14 5 11 C4.34 10.67 3.68 10.34 3 10 C0.8537299 6.28530176 0 4.35855288 0 0 Z " fill="#032E0F" transform="translate(674,728)"/>
<path d="M0 0 C2 1.8125 2 1.8125 4 4 C4 4.99 4 5.98 4 7 C4.99 7.33 5.98 7.66 7 8 C6.67 9.32 6.34 10.64 6 12 C3 11 3 11 1.3125 8.8125 C-0.17161628 5.63225084 -0.24194353 3.46785727 0 0 Z " fill="#2DC076" transform="translate(602,624)"/>
<path d="M0 0 C2.03833424 1.2739589 4.03852126 2.61061923 6 4 C6 4.66 6 5.32 6 6 C5.34 6 4.68 6 4 6 C4 7.65 4 9.3 4 11 C3.34 11 2.68 11 2 11 C0.57741188 7.17679443 -0.24042276 4.08718695 0 0 Z " fill="#56AF7F" transform="translate(563,554)"/>
<path d="M0 0 C2.3125 -0.25 2.3125 -0.25 5 0 C6.97610386 2.04424538 8 3.1176825 8 6 C8.99 6 9.98 6 11 6 C11.33 7.65 11.66 9.3 12 11 C7.81576108 7.49102731 3.80411834 3.91939465 0 0 Z " fill="#042E12" transform="translate(895,881)"/>
<path d="M0 0 C2.3125 0.5625 2.3125 0.5625 5 2 C6.67188455 5.28405893 7.83711469 8.51134406 9 12 C5.83884224 10.63016497 5.0072908 10.0109362 3 7 C3 5.68 3 4.36 3 3 C2.01 2.67 1.02 2.34 0 2 C0 1.34 0 0.68 0 0 Z " fill="#30BC79" transform="translate(621,603)"/>
<path d="M0 0 C2.31111107 0.39846743 3.66633716 0.65044845 5.3125 2.375 C7.8480208 4.81661262 10.7387107 5.70779103 14 7 C14 7.99 14 8.98 14 10 C8.25 8.125 8.25 8.125 6 7 C6 6.34 6 5.68 6 5 C4.02 4.34 2.04 3.68 0 3 C0 2.01 0 1.02 0 0 Z " fill="#28CD7C" transform="translate(657,648)"/>
<path d="M0 0 C4.85077588 1.11940982 7.777893 2.1334716 11 6 C10.67 6.99 10.34 7.98 10 9 C5.2993763 7.51559252 5.2993763 7.51559252 3.875 5.0625 C3.441875 4.0415625 3.441875 4.0415625 3 3 C1.4587688 1.29078411 1.4587688 1.29078411 0 0 Z " fill="#0F4727" transform="translate(605,588)"/>
<path d="M0 0 C3.7404892 3.22455965 5.1689395 6.46215442 7 11 C7.5775 11.928125 8.155 12.85625 8.75 13.8125 C9.1625 14.534375 9.575 15.25625 10 16 C9.67 16.66 9.34 17.32 9 18 C3.65393 13.69344361 1.87457465 8.5034126 0 2 C0 1.34 0 0.68 0 0 Z " fill="#01280C" transform="translate(569,577)"/>
<path d="M0 0 C0.66 0 1.32 0 2 0 C2 0.66 2 1.32 2 2 C2.66 2 3.32 2 4 2 C4.98484108 3.74681293 5.96266187 5.4975851 6.9375 7.25 C7.75541016 8.71179688 7.75541016 8.71179688 8.58984375 10.203125 C9.76610835 12.53610409 10.52101691 14.45350762 11 17 C5.46180277 12.43913169 2.97724478 6.41488823 0 0 Z " fill="#39AD6C" transform="translate(768,867)"/>
<path d="M0 0 C0.66 0 1.32 0 2 0 C2 0.66 2 1.32 2 2 C2.5775 2.12375 3.155 2.2475 3.75 2.375 C6.02335767 3.00648824 7.9253529 3.88858191 10 5 C10 5.66 10 6.32 10 7 C11.65 7.33 13.3 7.66 15 8 C15 8.66 15 9.32 15 10 C9.84754943 8.58307609 5.17298579 6.35631554 1 3 C0.67 2.01 0.34 1.02 0 0 Z " fill="#042C0E" transform="translate(838,824)"/>
<path d="M0 0 C0.33 0.66 0.66 1.32 1 2 C2.32 2 3.64 2 5 2 C5 9.26 5 16.52 5 24 C4.67 24 4.34 24 4 24 C3.67 17.73 3.34 11.46 3 5 C2.01 4.67 1.02 4.34 0 4 C0 2.68 0 1.36 0 0 Z " fill="#2CC377" transform="translate(753,738)"/>
<path d="M0 0 C10.55808656 -0.18451025 10.55808656 -0.18451025 15 1 C15 1.66 15 2.32 15 3 C9.47322267 3.19392201 5.24385089 2.7479503 0 1 C0 0.67 0 0.34 0 0 Z " fill="#42CE81" transform="translate(854,961)"/>
<path d="M0 0 C0.33 0.99 0.66 1.98 1 3 C0.50628906 3.48210938 0.01257813 3.96421875 -0.49609375 4.4609375 C-1.45708984 5.40839844 -1.45708984 5.40839844 -2.4375 6.375 C-3.07558594 7.00148438 -3.71367187 7.62796875 -4.37109375 8.2734375 C-6.07882176 9.91723061 -6.07882176 9.91723061 -7 12 C-7.99 11.67 -8.98 11.34 -10 11 C-8.89718873 9.72799029 -7.79269231 8.45744147 -6.6875 7.1875 C-6.07261719 6.47980469 -5.45773437 5.77210938 -4.82421875 5.04296875 C-3.26665665 3.29863261 -1.67341125 1.63221959 0 0 Z " fill="#393936" transform="translate(499,535)"/>
<path d="M0 0 C0.33 0.99 0.66 1.98 1 3 C-0.45217676 4.50596108 -1.91192861 6.00462104 -3.375 7.5 C-4.18710937 8.3353125 -4.99921875 9.170625 -5.8359375 10.03125 C-8 12 -8 12 -10 12 C-8.52278578 8.54798361 -6.56205999 6.35038064 -3.875 3.75 C-3.15054688 3.04359375 -2.42609375 2.3371875 -1.6796875 1.609375 C-1.12539063 1.07828125 -0.57109375 0.5471875 0 0 Z " fill="#CED0CC" transform="translate(549,404)"/>
<path d="M0 0 C0.66 0.33 1.32 0.66 2 1 C-1.96 4.96 -5.92 8.92 -10 13 C-10 8.41771462 -7.08388033 6.1816619 -4 3 C-1.625 1.0625 -1.625 1.0625 0 0 Z " fill="#2C2C2C" transform="translate(999,972)"/>
<path d="M0 0 C-0.66 1.32 -1.32 2.64 -2 4 C-5.63 4 -9.26 4 -13 4 C-13 3.01 -13 2.02 -13 1 C-8.62426048 0.40667939 -4.42471556 -0.13827236 0 0 Z " fill="#0A3C1F" transform="translate(953,959)"/>
<path d="M0 0 C2.50719458 2.32649587 4.32183601 4.82681521 6.1875 7.6875 C6.71730469 8.49574219 7.24710938 9.30398438 7.79296875 10.13671875 C8.39044922 11.05904297 8.39044922 11.05904297 9 12 C8.67 12.66 8.34 13.32 8 14 C7.34 13.67 6.68 13.34 6 13 C6 12.34 6 11.68 6 11 C5.34 11 4.68 11 4 11 C3.32880451 9.5437455 2.66318193 8.08492133 2 6.625 C1.62875 5.81289063 1.2575 5.00078125 0.875 4.1640625 C0 2 0 2 0 0 Z " fill="#043111" transform="translate(776,881)"/>
<path d="M0 0 C2.4375 0.375 2.4375 0.375 5 1 C5.33 1.66 5.66 2.32 6 3 C7.88764903 3.68472665 7.88764903 3.68472665 10.0625 4.125 C10.79597656 4.29257812 11.52945313 4.46015625 12.28515625 4.6328125 C12.85105469 4.75398437 13.41695312 4.87515625 14 5 C14 5.66 14 6.32 14 7 C6.75898264 7.61364554 6.75898264 7.61364554 3.0625 4.625 C1 2 1 2 0 0 Z " fill="#29CD7B" transform="translate(772,769)"/>
<path d="M0 0 C0.33 0.66 0.66 1.32 1 2 C1.99 2 2.98 2 4 2 C5.19287411 5.87684087 6 8.91621923 6 13 C5.01 13 4.02 13 3 13 C2.8046875 10.98177083 2.609375 8.96354167 2.4140625 6.9453125 C2.13625251 4.77331755 2.13625251 4.77331755 0 3 C0 2.01 0 1.02 0 0 Z " fill="#28D07B" transform="translate(581,590)"/>
<path d="M0 0 C5.26964527 2.63482263 8.97903554 6.79943911 13 11 C12.01 11.33 11.02 11.66 10 12 C9.67 11.01 9.34 10.02 9 9 C8.34 9 7.68 9 7 9 C7 8.34 7 7.68 7 7 C6.01 6.67 5.02 6.34 4 6 C4 5.34 4 4.68 4 4 C3.34 4 2.68 4 2 4 C2 3.34 2 2.68 2 2 C1.34 2 0.68 2 0 2 C0 1.34 0 0.68 0 0 Z " fill="#3EB87A" transform="translate(587,573)"/>
<path d="M0 0 C2.70249451 0.37275786 3.79935135 0.78448849 5.6875 2.8125 C6.95294755 4.92157924 7.57033648 6.59388429 8 9 C5.6875 8.4375 5.6875 8.4375 3 7 C1.65223022 4.72037377 0.88635784 2.51912228 0 0 Z " fill="#37C37B" transform="translate(717,709)"/>
<path d="M0 0 C0.33 0.99 0.66 1.98 1 3 C1.66 3 2.32 3 3 3 C4.625 4.1875 4.625 4.1875 6 6 C6.1875 8.6875 6.1875 8.6875 6 11 C5.34 11 4.68 11 4 11 C3.71125 10.360625 3.4225 9.72125 3.125 9.0625 C2.17176549 6.84793921 2.17176549 6.84793921 0 6 C-0.6875 3.5 -0.6875 3.5 -1 1 C-0.67 0.67 -0.34 0.34 0 0 Z " fill="#2ACA76" transform="translate(725,797)"/>
<path d="M0 0 C3.85312035 0.40559162 5.37972871 1.27055074 8 4 C10.59915538 5.19027984 10.59915538 5.19027984 13 6 C13 6.33 13 6.66 13 7 C11.081875 6.8453125 11.081875 6.8453125 9.125 6.6875 C8.04605469 6.60048828 8.04605469 6.60048828 6.9453125 6.51171875 C5 6 5 6 3 3 C0.94996045 1.80767387 0.94996045 1.80767387 -1 1 C-0.67 0.67 -0.34 0.34 0 0 Z " fill="#3CB476" transform="translate(773,767)"/>
<path d="M0 0 C1.9375 0.625 1.9375 0.625 4 2 C4.75 5.125 4.75 5.125 5 8 C5.66 8 6.32 8 7 8 C7 8.66 7 9.32 7 10 C6.01 10 5.02 10 4 10 C4 9.01 4 8.02 4 7 C3.34 7 2.68 7 2 7 C0 4 0 4 0 0 Z " fill="#2CC077" transform="translate(687,671)"/>
<path d="M0 0 C0.66 0 1.32 0 2 0 C2 0.66 2 1.32 2 2 C2.66 2 3.32 2 4 2 C5.21875 3.71484375 5.21875 3.71484375 6.5 5.9375 C8.18454879 9.05432026 8.18454879 9.05432026 11 11 C11 11.66 11 12.32 11 13 C7.13665296 11.50423511 5.53441365 9.3299519 3.25 5.9375 C2.63640625 5.03902344 2.0228125 4.14054688 1.390625 3.21484375 C0 1 0 1 0 0 Z " fill="#42BC7A" transform="translate(645,690)"/>
<path d="M0 0 C0.33 1.32 0.66 2.64 1 4 C-1.3125 6.75 -1.3125 6.75 -4 9 C-4.66 9 -5.32 9 -6 9 C-6.33 9.99 -6.66 10.98 -7 12 C-7.66 11.67 -8.32 11.34 -9 11 C-6.03 7.37 -3.06 3.74 0 0 Z " fill="#D6D7D1" transform="translate(425,545)"/>
<path d="M0 0 C0.33 0 0.66 0 1 0 C1.06058594 0.90363281 1.12117187 1.80726563 1.18359375 2.73828125 C1.26738281 3.91777344 1.35117187 5.09726562 1.4375 6.3125 C1.51871094 7.48425781 1.59992187 8.65601563 1.68359375 9.86328125 C2.05214159 13.51690984 2.37800805 15.37800805 5 18 C3.35 17.67 1.7 17.34 0 17 C0 11.39 0 5.78 0 0 Z " fill="#013614" transform="translate(635,619)"/>
<path d="M0 0 C3.875 1.875 3.875 1.875 5 3 C5.14115161 5.67058851 5.04247107 8.32432238 5 11 C4.731875 10.4225 4.46375 9.845 4.1875 9.25 C3.05815166 6.94603902 3.05815166 6.94603902 1.375 4.9375 C0 3 0 3 0 0 Z " fill="#3EBB77" transform="translate(579,592)"/>
<path d="M0 0 C0.66 0 1.32 0 2 0 C2 0.66 2 1.32 2 2 C2.99 2.33 3.98 2.66 5 3 C5 3.99 5 4.98 5 6 C5.99 6.33 6.98 6.66 8 7 C8.33 8.98 8.66 10.96 9 13 C0 2 0 2 0 0 Z " fill="#35A669" transform="translate(716,790)"/>
<path d="M0 0 C0.66 0 1.32 0 2 0 C2 0.66 2 1.32 2 2 C2.99 2 3.98 2 5 2 C6.4783226 4.95664519 6.06032783 7.74229737 6 11 C2.17179787 9.08589894 1.29482585 3.88447755 0 0 Z " fill="#34AD6C" transform="translate(624,659)"/>
<path d="M0 0 C0.99 0 1.98 0 3 0 C3.66 2.31 4.32 4.62 5 7 C4.01 6.01 3.02 5.02 2 4 C0.68 4.99 -0.64 5.98 -2 7 C-1.34 4.69 -0.68 2.38 0 0 Z " fill="#8A8A8A" transform="translate(983,944)"/>
<path d="M0 0 C1.485 0.99 1.485 0.99 3 2 C3.99 2.33 4.98 2.66 6 3 C6 4.65 6 6.3 6 8 C5.01 8.495 5.01 8.495 4 9 C3.731875 8.401875 3.46375 7.80375 3.1875 7.1875 C2.01506533 5.02775192 0.80630718 3.64209744 -1 2 C-0.67 1.34 -0.34 0.68 0 0 Z " fill="#26D077" transform="translate(818,932)"/>
<path d="M0 0 C0.66 0.66 1.32 1.32 2 2 C-1.3 5.3 -4.6 8.6 -8 12 C-8 8.03869629 -6.65122875 7.17085599 -4 4.3125 C-3.2575 3.50425781 -2.515 2.69601562 -1.75 1.86328125 C-1.1725 1.24839844 -0.595 0.63351562 0 0 Z " fill="#2B2A28" transform="translate(275,759)"/>
<path d="M0 0 C3.97497544 3.40712181 5.86793788 7.32760855 8 12 C7.34 12 6.68 12 6 12 C5.896875 11.360625 5.79375 10.72125 5.6875 10.0625 C5.460625 9.381875 5.23375 8.70125 5 8 C4.01 7.67 3.02 7.34 2 7 C2 6.01 2 5.02 2 4 C1.34 4 0.68 4 0 4 C0 2.68 0 1.36 0 0 Z " fill="#053516" transform="translate(637,679)"/>
<path d="M0 0 C0.33 1.32 0.66 2.64 1 4 C-0.21484375 5.703125 -0.21484375 5.703125 -1.9375 7.25 C-2.50339844 7.77078125 -3.06929688 8.2915625 -3.65234375 8.828125 C-4.09707031 9.21484375 -4.54179687 9.6015625 -5 10 C-5.66 9.67 -6.32 9.34 -7 9 C-4.69 6.03 -2.38 3.06 0 0 Z " fill="#DBDCD6" transform="translate(371,608)"/>
<path d="M0 0 C2 2.5 2 2.5 4 5 C5.11375 6.3303125 5.11375 6.3303125 6.25 7.6875 C8 10 8 10 8 12 C4.22471696 10.74157232 3.89332955 9.37506571 2 6 C1.34 5.34 0.68 4.68 0 4 C0 2.68 0 1.36 0 0 Z " fill="#063C18" transform="translate(753,846)"/>
<path d="M0 0 C0.66 0.33 1.32 0.66 2 1 C1.09515208 2.15518918 0.1755794 3.29885406 -0.75 4.4375 C-1.26046875 5.07558594 -1.7709375 5.71367188 -2.296875 6.37109375 C-4.19667629 8.18810554 -5.43586908 8.60423197 -8 9 C-6.38405168 6.95880212 -4.7143618 4.95927063 -3 3 C-2.34 3 -1.68 3 -1 3 C-0.67 2.01 -0.34 1.02 0 0 Z " fill="#BCBDB7" transform="translate(186,817)"/>
<path d="M0 0 C2.74277578 3.19990508 4.6302836 6.00499382 6 10 C5.01 9.67 4.02 9.34 3 9 C3 8.01 3 7.02 3 6 C2.01 5.67 1.02 5.34 0 5 C0 3.35 0 1.7 0 0 Z " fill="#02270B" transform="translate(702,769)"/>
<path d="M0 0 C1.15224028 0.92961422 2.29659176 1.8690125 3.4375 2.8125 C4.07558594 3.33457031 4.71367188 3.85664062 5.37109375 4.39453125 C7 6 7 6 8 9 C6.68 8.67 5.36 8.34 4 8 C3.67 6.68 3.34 5.36 3 4 C2.34 4 1.68 4 1 4 C0.67 2.68 0.34 1.36 0 0 Z " fill="#35AF71" transform="translate(691,675)"/>
<path d="M0 0 C0.99 0.495 0.99 0.495 2 1 C2.33 1.99 2.66 2.98 3 4 C3.99 4.66 4.98 5.32 6 6 C6.6875 8.125 6.6875 8.125 7 10 C6.01 10 5.02 10 4 10 C0 3.375 0 3.375 0 0 Z " fill="#329D63" transform="translate(573,582)"/>
<path d="M0 0 C2.64 0 5.28 0 8 0 C8 0.99 8 1.98 8 3 C5.36 3 2.72 3 0 3 C0 2.01 0 1.02 0 0 Z " fill="#BEC0BF" transform="translate(176,146)"/>
<path d="M0 0 C1.14926266 0.95421808 2.29430541 1.91352045 3.4375 2.875 C4.07558594 3.40867187 4.71367188 3.94234375 5.37109375 4.4921875 C7 6 7 6 8 8 C5.6875 7.8125 5.6875 7.8125 3 7 C0 2.96551724 0 2.96551724 0 0 Z " fill="#33A268" transform="translate(853,835)"/>
<path d="M0 0 C5.6 1.46086957 5.6 1.46086957 7.4375 3.9375 C8 6 8 6 7 9 C6.401875 8.071875 5.80375 7.14375 5.1875 6.1875 C3.54727155 3.79745282 2.1281083 1.91529747 0 0 Z " fill="#042E12" transform="translate(820,803)"/>
<path d="M0 0 C3.33557632 2.9905167 5.15083921 5.93184627 7 10 C5.109375 9.78515625 5.109375 9.78515625 3 9 C1.953125 6.93359375 1.953125 6.93359375 1.25 4.4375 C1.00765625 3.61121094 0.7653125 2.78492188 0.515625 1.93359375 C0.34546875 1.29550781 0.1753125 0.65742187 0 0 Z " fill="#053414" transform="translate(720,797)"/>
<path d="M0 0 C0.66 0.33 1.32 0.66 2 1 C0.02 3.31 -1.96 5.62 -4 8 C-4.99 7.67 -5.98 7.34 -7 7 C-4.69 4.69 -2.38 2.38 0 0 Z " fill="#939490" transform="translate(246,793)"/>
<path d="M0 0 C0.6875 1.625 0.6875 1.625 1 4 C-0.4375 7.25 -0.4375 7.25 -2 10 C-2.33 10 -2.66 10 -3 10 C-3.36923077 3.47692308 -3.36923077 3.47692308 -1.5 1.0625 C-1.005 0.711875 -0.51 0.36125 0 0 Z " fill="#A3A3A1" transform="translate(587,447)"/>
<path d="M0 0 C0.66 0 1.32 0 2 0 C1.67 1.65 1.34 3.3 1 5 C0.34 5 -0.32 5 -1 5 C-1.33 6.98 -1.66 8.96 -2 11 C-2.95465783 8.83032311 -3.14401212 7.43671207 -2.3984375 5.17578125 C-1.64129615 3.4315257 -0.82390802 1.71372869 0 0 Z " fill="#777776" transform="translate(757,269)"/>
<path d="M0 0 C1.98 1.65 3.96 3.3 6 5 C4.1875 5.625 4.1875 5.625 2 6 C1.01 5.34 0.02 4.68 -1 4 C-0.67 2.68 -0.34 1.36 0 0 Z " fill="#31A86A" transform="translate(939,921)"/>
<path d="M0 0 C1.98 0.66 3.96 1.32 6 2 C6 2.99 6 3.98 6 5 C5.401875 4.67 4.80375 4.34 4.1875 4 C1.94613529 2.79212012 1.94613529 2.79212012 -1 3 C-0.67 2.01 -0.34 1.02 0 0 Z " fill="#2ABF74" transform="translate(805,791)"/>
<path d="M0 0 C5.53846154 0.49230769 5.53846154 0.49230769 7.875 3.0625 C8.431875 4.0215625 8.431875 4.0215625 9 5 C8.67 5.66 8.34 6.32 8 7 C6.66382648 6.02471263 5.3311249 5.04466681 4 4.0625 C3.2575 3.51722656 2.515 2.97195313 1.75 2.41015625 C1.1725 1.94480469 0.595 1.47945312 0 1 C0 0.67 0 0.34 0 0 Z " fill="#2ACA78" transform="translate(736,728)"/>
<path d="M0 0 C0.33 0.99 0.66 1.98 1 3 C1.66 3 2.32 3 3 3 C3 4.65 3 6.3 3 8 C3.66 8.33 4.32 8.66 5 9 C4.01 9 3.02 9 2 9 C-0.29013653 5.5647952 -0.17842973 4.014669 0 0 Z " fill="#34B56D" transform="translate(676,726)"/>
<path d="M0 0 C2.99324263 1.0975223 3.84610901 1.67682892 5.25 4.625 C5.4975 5.40875 5.745 6.1925 6 7 C4.35 6.67 2.7 6.34 1 6 C0.67 4.02 0.34 2.04 0 0 Z " fill="#2FA56A" transform="translate(615,596)"/>
<path d="M0 0 C0.66 0.33 1.32 0.66 2 1 C-0.64 3.64 -3.28 6.28 -6 9 C-6.66 8.67 -7.32 8.34 -8 8 C-5.58443874 4.80800833 -3.31996462 2.25283313 0 0 Z " fill="#1B1B1A" transform="translate(456,579)"/>
<path d="M0 0 C0.99 0.495 0.99 0.495 2 1 C2.4140625 3.50390625 2.4140625 3.50390625 2.625 6.5625 C2.69976563 7.57441406 2.77453125 8.58632813 2.8515625 9.62890625 C2.92503906 10.80259766 2.92503906 10.80259766 3 12 C2.01 11.67 1.02 11.34 0 11 C0 7.37 0 3.74 0 0 Z " fill="#153C25" transform="translate(562,553)"/>
<path d="M0 0 C0.33 0.66 0.66 1.32 1 2 C-0.98 4.97 -2.96 7.94 -5 11 C-5.33 9.68 -5.66 8.36 -6 7 C-4.78515625 5.078125 -4.78515625 5.078125 -3.0625 3.25 C-2.49660156 2.63640625 -1.93070313 2.0228125 -1.34765625 1.390625 C-0.90292969 0.93171875 -0.45820312 0.4728125 0 0 Z " fill="#848584" transform="translate(933,107)"/>
<path d="M0 0 C0.66 0 1.32 0 2 0 C2 0.66 2 1.32 2 2 C2.99 2 3.98 2 5 2 C5.66 4.31 6.32 6.62 7 9 C4.03595495 6.19195732 1.55500981 3.81684226 0 0 Z " fill="#052F12" transform="translate(718,706)"/>
<path d="M0 0 C0.804375 0.4640625 0.804375 0.4640625 1.625 0.9375 C4.3984957 2.17827439 7.00042837 2.5909675 10 3 C10 3.33 10 3.66 10 4 C1.42857143 4.28571429 1.42857143 4.28571429 -2 2 C-1.34 1.34 -0.68 0.68 0 0 Z " fill="#052F13" transform="translate(646,638)"/>
<path d="M0 0 C0.33 1.32 0.66 2.64 1 4 C-1.97 6.475 -1.97 6.475 -5 9 C-5.66 8.67 -6.32 8.34 -7 8 C-4.69 5.36 -2.38 2.72 0 0 Z " fill="#D5D6D2" transform="translate(385,592)"/>
<path d="M0 0 C0.66 0 1.32 0 2 0 C2.50559908 1.43554025 3.0042749 2.8735202 3.5 4.3125 C3.7784375 5.11300781 4.056875 5.91351562 4.34375 6.73828125 C5 9 5 9 5 12 C2.2289312 9.65408148 1.47940716 7.85223799 0.8125 4.3125 C0.65394531 3.50425781 0.49539063 2.69601562 0.33203125 1.86328125 C0.22246094 1.24839844 0.11289062 0.63351562 0 0 Z " fill="#3CAA70" transform="translate(566,566)"/>
<path d="M0 0 C3.00617269 3.00617269 2.59585316 5.82381598 3 10 C2.01 9.34 1.02 8.68 0 8 C-0.40843923 5.28796348 -0.13336867 2.7562858 0 0 Z " fill="#063518" transform="translate(565,565)"/>
<path d="M0 0 C2.31 0.66 4.62 1.32 7 2 C7.33 3.65 7.66 5.3 8 7 C6.66382648 6.02471263 5.3311249 5.04466681 4 4.0625 C3.2575 3.51722656 2.515 2.97195313 1.75 2.41015625 C1.1725 1.94480469 0.595 1.47945312 0 1 C0 0.67 0 0.34 0 0 Z " fill="#062710" transform="translate(564,554)"/>
<path d="M0 0 C0.66 0.33 1.32 0.66 2 1 C-0.475 4.465 -0.475 4.465 -3 8 C-3.66 7.67 -4.32 7.34 -5 7 C-3.75023244 3.34683329 -3.32901247 2.21934164 0 0 Z " fill="#777775" transform="translate(532,504)"/>
<path d="M0 0 C0.66 0.99 1.32 1.98 2 3 C0.75 4.5625 0.75 4.5625 -1 6 C-3.1875 5.6875 -3.1875 5.6875 -5 5 C-3.35 3.35 -1.7 1.7 0 0 Z " fill="#858783" transform="translate(578,462)"/>
<path d="M0 0 C0.99 0.33 1.98 0.66 3 1 C3 2.65 3 4.3 3 6 C2.01 6 1.02 6 0 6 C-0.38218767 4.34385343 -0.71395102 2.67542976 -1 1 C-0.67 0.67 -0.34 0.34 0 0 Z " fill="#727270" transform="translate(591,432)"/>
<path d="M0 0 C4.29 0 8.58 0 13 0 C12.34 1.32 11.68 2.64 11 4 C10.67 3.01 10.34 2.02 10 1 C6.7 1 3.4 1 0 1 C0 0.67 0 0.34 0 0 Z " fill="#3F403F" transform="translate(798,98)"/>
<path d="M0 0 C4.67692308 1.47692308 4.67692308 1.47692308 6.3125 4.125 C6.539375 4.74375 6.76625 5.3625 7 6 C6.01 6 5.02 6 4 6 C4 5.34 4 4.68 4 4 C2.68 3.67 1.36 3.34 0 3 C0 2.01 0 1.02 0 0 Z " fill="#073716" transform="translate(822,943)"/>
<path d="M0 0 C2.83967231 2.83967231 4.8346853 5.64002892 7 9 C5.68 9 4.36 9 3 9 C2.01 6.03 1.02 3.06 0 0 Z " fill="#053815" transform="translate(793,906)"/>
<path d="M0 0 C0.33 0.66 0.66 1.32 1 2 C0 5 0 5 -2.4375 6.75 C-3.7059375 7.36875 -3.7059375 7.36875 -5 8 C-5.66 7.67 -6.32 7.34 -7 7 C-4.69 4.69 -2.38 2.38 0 0 Z " fill="#3F403E" transform="translate(182,861)"/>
<path d="M0 0 C2.79872437 2.52788007 4.45773019 4.20411134 5 8 C2 7 2 7 0 4 C0 2.68 0 1.36 0 0 Z " fill="#053212" transform="translate(761,858)"/>
<path d="M0 0 C3.42054006 1.14018002 4.2426201 1.92458518 6 5 C5.67 6.32 5.34 7.64 5 9 C3.35 6.03 1.7 3.06 0 0 Z " fill="#38B06E" transform="translate(762,858)"/>
<path d="M0 0 C1.9375 0.6875 1.9375 0.6875 4 2 C4.75 4.625 4.75 4.625 5 7 C4.01 7.33 3.02 7.66 2 8 C1.34 5.36 0.68 2.72 0 0 Z " fill="#33C179" transform="translate(867,851)"/>
<path d="M0 0 C4.875 4.625 4.875 4.625 6 8 C5.01 8 4.02 8 3 8 C0 2.25 0 2.25 0 0 Z " fill="#33AC6D" transform="translate(861,843)"/>
<path d="M0 0 C0.66 0.33 1.32 0.66 2 1 C0.02 2.98 -1.96 4.96 -4 7 C-4.66 6.67 -5.32 6.34 -6 6 C-2.25 1.125 -2.25 1.125 0 0 Z " fill="#DDDED8" transform="translate(178,826)"/>
<path d="M0 0 C0.99 0.33 1.98 0.66 3 1 C3.33 2.98 3.66 4.96 4 7 C3.01 6.67 2.02 6.34 1 6 C0.67 4.02 0.34 2.04 0 0 Z " fill="#33C875" transform="translate(736,816)"/>
<path d="M0 0 C1.32 0.33 2.64 0.66 4 1 C4.66 3.64 5.32 6.28 6 9 C5.01 8.67 4.02 8.34 3 8 C3 6.35 3 4.7 3 3 C2.34 3 1.68 3 1 3 C0.67 2.01 0.34 1.02 0 0 Z " fill="#2A945B" transform="translate(684,742)"/>
<path d="M0 0 C0.66 0.66 1.32 1.32 2 2 C-1.465 4.97 -1.465 4.97 -5 8 C-5.66 7.67 -6.32 7.34 -7 7 C-4.69 4.69 -2.38 2.38 0 0 Z " fill="#555652" transform="translate(561,479)"/>
<path d="M0 0 C0 0.99 0 1.98 0 3 C-2.31 3 -4.62 3 -7 3 C-7 2.34 -7 1.68 -7 1 C-4.50935112 0.31292445 -2.62113708 0 0 0 Z " fill="#346747" transform="translate(905,964)"/>
<path d="M0 0 C2.31 0.33 4.62 0.66 7 1 C7 1.66 7 2.32 7 3 C4.36 2.67 1.72 2.34 -1 2 C-0.67 1.34 -0.34 0.68 0 0 Z " fill="#399D66" transform="translate(888,964)"/>
<path d="M0 0 C0.99 0 1.98 0 3 0 C4.6875 2.5 4.6875 2.5 6 5 C5.01 5.495 5.01 5.495 4 6 C2.62437146 4.71034824 1.29233607 3.37310707 0 2 C0 1.34 0 0.68 0 0 Z " fill="#25D57A" transform="translate(652,696)"/>
<path d="M0 0 C0.33 0.99 0.66 1.98 1 3 C-0.65 4.32 -2.3 5.64 -4 7 C-4.66 6.67 -5.32 6.34 -6 6 C-4.02 4.02 -2.04 2.04 0 0 Z " fill="#191916" transform="translate(665,371)"/>
</svg>