<?xml version="1.0" encoding="UTF-8"?>
<svg version="1.1" xmlns="http://www.w3.org/2000/svg" width="100" height="100">
<path d="M0 0 C33 0 66 0 100 0 C100 33 100 66 100 100 C67 100 34 100 0 100 C0 67 0 34 0 0 Z " fill="#000000" transform="translate(0,0)"/>
<path d="M0 0 C28.05 0 56.1 0 85 0 C83.29457231 3.41085539 82.1809007 5.07508103 79.59375 7.671875 C78.93246094 8.33574219 78.27117187 8.99960938 77.58984375 9.68359375 C76.90019531 10.36550781 76.21054688 11.04742187 75.5 11.75 C74.81035156 12.44738281 74.12070313 13.14476562 73.41015625 13.86328125 C72.41822266 14.85134766 72.41822266 14.85134766 71.40625 15.859375 C70.80103516 16.46233398 70.19582031 17.06529297 69.57226562 17.68652344 C68 19 68 19 66 19 C65.78472656 19.55429687 65.56945312 20.10859375 65.34765625 20.6796875 C63.53289173 23.80423859 61.15315214 25.75278757 58.4375 28.125 C54.71412066 31.16488178 54.71412066 31.16488178 52 35 C51.34 35 50.68 35 50 35 C49.67 35.99 49.34 36.98 49 38 C47.55883789 39.42211914 47.55883789 39.42211914 45.66015625 40.97265625 C40.493861 45.35830782 35.73193848 50.11758726 30.9543457 54.9152832 C29.4400742 56.43491668 27.9205257 57.94912517 26.40039062 59.46289062 C21.56734471 64.29292843 16.85192379 69.17742115 12.40600586 74.37133789 C10.70886354 76.33724107 8.91740877 78.18294651 7.0625 80 C6.18271484 80.86625 6.18271484 80.86625 5.28515625 81.75 C4.86105469 82.1625 4.43695312 82.575 4 83 C4 80 4 80 5.21484375 78.5625 C5.78332031 78.046875 6.35179687 77.53125 6.9375 77 C9.98768989 74.08455745 12.67061489 71.04060423 15.3125 67.75 C18.4271238 63.87919419 21.63333359 60.15374649 25 56.5 C29.11378909 52.0301488 32.97087297 47.40955107 36.78515625 42.68359375 C39.66480887 39.19449084 42.70693876 35.87003079 45.75390625 32.52734375 C48.06187598 29.93037607 50.25555863 27.26595987 52.4375 24.5625 C56.3631314 19.70711379 60.49451245 15.08643584 64.73828125 10.5078125 C66.93080888 8.07671969 68.96620554 5.56408239 71 3 C56.23692936 3.69097354 41.55389894 4.97147959 26.84082031 6.34594727 C23.8915421 6.62032645 20.94188944 6.8903766 17.9921875 7.16015625 C17.10562469 7.24451431 16.21906189 7.32887238 15.30563354 7.41578674 C10.17817472 7.88367786 5.14891905 8.08006781 0 8 C0 5.36 0 2.72 0 0 Z " fill="#FFFFFF" transform="translate(7,7)"/>
<path d="M0 0 C24.09 0 48.18 0 73 0 C69.01962336 1.99018832 66.54932879 2.48463962 62.1875 2.9921875 C61.49736816 3.07298553 60.80723633 3.15378357 60.09619141 3.23703003 C51.08188968 4.2631633 42.04343944 5.0652148 33.00634766 5.85986328 C29.97644309 6.12707754 26.94721302 6.4011935 23.91796875 6.67578125 C21.96618247 6.8493707 20.01436074 7.02256223 18.0625 7.1953125 C17.16966309 7.27653351 16.27682617 7.35775452 15.35693359 7.44143677 C10.21480107 7.88754142 5.16153469 8.07700436 0 8 C0 5.36 0 2.72 0 0 Z " fill="#FFFFFF" transform="translate(7,7)"/>
<path d="M0 0 C1.1725131 0.95117134 2.33787015 1.91117009 3.5 2.875 C4.47453125 3.67550781 4.47453125 3.67550781 5.46875 4.4921875 C5.9740625 4.98976563 6.479375 5.48734375 7 6 C7 6.66 7 7.32 7 8 C7.556875 8.20625 8.11375 8.4125 8.6875 8.625 C11.85840149 10.51040088 13.68729479 13.15359359 16 16 C16.99 16.66 17.98 17.32 19 18 C19 18.66 19 19.32 19 20 C19.60328125 20.26425781 20.2065625 20.52851562 20.828125 20.80078125 C23.1042287 22.05755074 24.16818433 23.15440162 25.75 25.1875 C28.62949421 28.71506452 31.83979262 31.54939284 35.36328125 34.421875 C37 36 37 36 38 39 C34.17061303 39.63353829 30.81479605 39.79832818 27 39 C23.54344426 36.20327714 21.37032 32.72969606 19 29 C18.36707031 28.0615625 17.73414062 27.123125 17.08203125 26.15625 C15.76020727 24.19330182 14.45321975 22.2202931 13.16015625 20.23828125 C10.30081915 15.95186089 7.28590343 11.78488338 4.23681641 7.63183594 C2.39207362 5.09083974 1.00019641 3.00058923 0 0 Z " fill="#FFFFFF" transform="translate(54,54)"/>
<path d="M0 0 C-0.46476325 4.27181313 -3.15890626 6.5267819 -6.1015625 9.359375 C-6.87359512 10.12148285 -6.87359512 10.12148285 -7.66122437 10.89898682 C-9.30885933 12.52325614 -10.96627234 14.13706692 -12.625 15.75 C-14.78768825 17.8659101 -16.94601738 19.98618945 -19.1015625 22.109375 C-19.62175461 22.6209314 -20.14194672 23.13248779 -20.67790222 23.6595459 C-24.16143997 27.1075185 -27.4517881 30.66401045 -30.62695312 34.39550781 C-32.30736361 36.35917384 -34.09170121 38.19187057 -35.9375 40 C-36.52402344 40.5775 -37.11054687 41.155 -37.71484375 41.75 C-38.13894531 42.1625 -38.56304687 42.575 -39 43 C-39 40 -39 40 -37.78515625 38.5625 C-37.21667969 38.046875 -36.64820313 37.53125 -36.0625 37 C-33.01231011 34.08455745 -30.32938511 31.04060423 -27.6875 27.75 C-23.72828911 22.83138988 -19.56711724 18.15400416 -15.2890625 13.51171875 C-13.36527611 11.40080638 -11.51301984 9.25780463 -9.6875 7.0625 C-3.6945613 0 -3.6945613 0 0 0 Z " fill="#FFFFFF" transform="translate(50,47)"/>
<path d="M0 0 C2.1875 0.125 2.1875 0.125 5 1 C6.28448423 2.44504475 7.56510538 3.89868713 8.73046875 5.44140625 C10.11749316 7.25613734 10.11749316 7.25613734 12.8125 9.25 C13.8953125 10.11625 13.8953125 10.11625 15 11 C15 11.66 15 12.32 15 13 C5.60236124 14.20396795 5.60236124 14.20396795 1.86328125 11.39453125 C0.18120733 9.30468183 -1.03307287 7.50290706 -2 5 C-1.375 2 -1.375 2 0 0 Z " fill="#FFFFFF" transform="translate(77,80)"/>
<path d="M0 0 C0.66 0.33 1.32 0.66 2 1 C-0.97 3.475 -0.97 3.475 -4 6 C-2.84826645 3.53199953 -1.95216435 1.95216435 0 0 Z M-5 6 C-4.67 6.99 -4.34 7.98 -4 9 C-6.55700704 11.7551515 -9.12155846 14.50316963 -11.6875 17.25 C-12.40873047 18.02730469 -13.12996094 18.80460937 -13.87304688 19.60546875 C-17.39515525 23.36881743 -20.82713407 26.93825222 -25 30 C-23.33433323 25.82567656 -20.29621163 22.88842371 -17.25 19.6875 C-16.16574357 18.53211557 -15.0824011 17.37587274 -14 16.21875 C-13.48179688 15.66574219 -12.96359375 15.11273438 -12.4296875 14.54296875 C-9.86112908 11.77089067 -7.42547386 8.89709378 -5 6 Z " fill="#FFFFFF" transform="translate(35,60)"/>
<path d="M0 0 C1.1725131 0.95117134 2.33787015 1.91117009 3.5 2.875 C4.47453125 3.67550781 4.47453125 3.67550781 5.46875 4.4921875 C5.9740625 4.98976563 6.479375 5.48734375 7 6 C7 6.66 7 7.32 7 8 C7.5775 8.226875 8.155 8.45375 8.75 8.6875 C11.5663661 10.33038023 13.08077114 12.39533227 15 15 C13.35 15.33 11.7 15.66 10 16 C8.51633029 13.89888391 7.03797344 11.79435965 5.5625 9.6875 C5.14162109 9.09259766 4.72074219 8.49769531 4.28710938 7.88476562 C2.46155404 5.27057039 1.01412535 3.04237604 0 0 Z " fill="#FFFFFF" transform="translate(54,54)"/>
<path d="M0 0 C0.66 0.66 1.32 1.32 2 2 C-2.29 6.29 -6.58 10.58 -11 15 C-11 12 -11 12 -9.609375 10.3515625 C-8.99578125 9.78179687 -8.3821875 9.21203125 -7.75 8.625 C-4.9065733 5.9084605 -2.38050263 3.14226347 0 0 Z " fill="#FFFFFF" transform="translate(22,75)"/>
<path d="M0 0 C-0.54226981 3.79588866 -2.20127563 5.47211993 -5 8 C-5.99 7.67 -6.98 7.34 -8 7 C-6.76759083 3.3027725 -4.20634615 0 0 0 Z " fill="#FFFFFF" transform="translate(50,47)"/>
</svg>
